<svg xmlns="http://www.w3.org/2000/svg" xmlns:xlink="http://www.w3.org/1999/xlink" width="45" zoomAndPan="magnify" viewBox="0 0 33.75 33.749998" height="45" preserveAspectRatio="xMidYMid meet" version="1.0"><defs><clipPath id="031ef9c815"><path d="M 0 0 L 33.5 0 L 33.5 33.5 L 0 33.5 Z M 0 0 " clip-rule="nonzero"/></clipPath><clipPath id="c09a4acc7d"><path d="M 2.671875 3.289062 L 32.882812 3.289062 L 32.882812 33.5 L 2.671875 33.5 Z M 2.671875 3.289062 " clip-rule="nonzero"/></clipPath><clipPath id="6e8f410ebe"><path d="M 17.777344 3.289062 C 9.433594 3.289062 2.671875 10.050781 2.671875 18.394531 C 2.671875 26.738281 9.433594 33.5 17.777344 33.5 C 26.121094 33.5 32.882812 26.738281 32.882812 18.394531 C 32.882812 10.050781 26.121094 3.289062 17.777344 3.289062 Z M 17.777344 3.289062 " clip-rule="nonzero"/></clipPath><clipPath id="5ae1683890"><path d="M 0 0 L 30.207031 0 L 30.207031 30.207031 L 0 30.207031 Z M 0 0 " clip-rule="nonzero"/></clipPath><clipPath id="633ed5a3de"><path d="M 15.105469 0 C 6.761719 0 0 6.761719 0 15.105469 C 0 23.445312 6.761719 30.207031 15.105469 30.207031 C 23.445312 30.207031 30.207031 23.445312 30.207031 15.105469 C 30.207031 6.761719 23.445312 0 15.105469 0 Z M 15.105469 0 " clip-rule="nonzero"/></clipPath><clipPath id="1460ee2f6c"><path d="M 8 6.546875 L 22 6.546875 L 22 23.667969 L 8 23.667969 Z M 8 6.546875 " clip-rule="nonzero"/></clipPath></defs><g clip-path="url(#031ef9c815)"><path fill="#ffffff" d="M 0 0 L 33.5 0 L 33.5 33.5 L 0 33.5 Z M 0 0 " fill-opacity="1" fill-rule="nonzero"/><path fill="#ffffff" d="M 0 0 L 33.5 0 L 33.5 33.5 L 0 33.5 Z M 0 0 " fill-opacity="1" fill-rule="nonzero"/></g><g clip-path="url(#c09a4acc7d)"><g clip-path="url(#6e8f410ebe)"><path fill="#d5f8cc" d="M 2.671875 3.289062 L 32.882812 3.289062 L 32.882812 33.5 L 2.671875 33.5 Z M 2.671875 3.289062 " fill-opacity="1" fill-rule="nonzero"/></g></g><g clip-path="url(#5ae1683890)"><g clip-path="url(#633ed5a3de)"><path stroke-linecap="butt" transform="matrix(0.762966, 0, 0, 0.762966, 0.000001, -0.000000992647)" fill="none" stroke-linejoin="miter" d="M 19.798351 0.00000130104 C 8.862411 0.00000130104 -0.00000131067 8.862413 -0.00000131067 19.798353 C -0.00000131067 30.729174 8.862411 39.591586 19.798351 39.591586 C 30.729171 39.591586 39.591583 30.729174 39.591583 19.798353 C 39.591583 8.862413 30.729171 0.00000130104 19.798351 0.00000130104 Z M 19.798351 0.00000130104 " stroke="#008000" stroke-width="1.951556" stroke-opacity="1" stroke-miterlimit="4"/></g></g><g clip-path="url(#1460ee2f6c)"><path fill="#008000" d="M 14.261719 7.402344 C 14.773438 6.859375 15.105469 6.546875 15.105469 6.546875 C 15.222656 6.933594 15.355469 7.304688 15.503906 7.65625 C 16.371094 9.738281 17.722656 11.242188 18.925781 12.578125 C 20.328125 14.140625 21.527344 15.476562 21.527344 17.246094 C 21.527344 17.667969 21.488281 18.085938 21.40625 18.5 C 21.324219 18.914062 21.199219 19.316406 21.039062 19.703125 C 20.878906 20.09375 20.679688 20.464844 20.445312 20.816406 C 20.210938 21.164062 19.945312 21.488281 19.648438 21.789062 C 19.347656 22.085938 19.023438 22.351562 18.675781 22.585938 C 18.324219 22.820312 17.953125 23.019531 17.5625 23.179688 C 17.175781 23.339844 16.773438 23.460938 16.359375 23.542969 C 15.945312 23.628906 15.527344 23.667969 15.105469 23.667969 C 14.683594 23.667969 14.265625 23.628906 13.855469 23.542969 C 13.441406 23.460938 13.039062 23.339844 12.648438 23.179688 C 12.261719 23.019531 11.890625 22.820312 11.539062 22.585938 C 11.1875 22.351562 10.863281 22.085938 10.566406 21.789062 C 10.269531 21.488281 10 21.164062 9.769531 20.816406 C 9.535156 20.464844 9.335938 20.09375 9.175781 19.703125 C 9.011719 19.316406 8.890625 18.914062 8.808594 18.5 C 8.726562 18.085938 8.683594 17.667969 8.683594 17.246094 C 8.683594 13.679688 12.515625 9.238281 14.261719 7.402344 M 14.703125 8.492188 C 14.015625 9.238281 13.363281 10.011719 12.746094 10.816406 C 11.96875 11.832031 11.210938 12.964844 10.648438 14.101562 C 10.082031 15.25 9.753906 16.324219 9.753906 17.246094 C 9.753906 17.597656 9.789062 17.945312 9.859375 18.292969 C 9.925781 18.636719 10.027344 18.96875 10.164062 19.292969 C 10.296875 19.621094 10.460938 19.929688 10.65625 20.21875 C 10.851562 20.511719 11.074219 20.78125 11.324219 21.03125 C 11.570312 21.277344 11.839844 21.5 12.132812 21.695312 C 12.425781 21.890625 12.734375 22.054688 13.058594 22.191406 C 13.382812 22.324219 13.71875 22.425781 14.0625 22.496094 C 14.40625 22.5625 14.753906 22.597656 15.105469 22.597656 C 15.457031 22.597656 15.804688 22.5625 16.152344 22.496094 C 16.496094 22.425781 16.828125 22.324219 17.15625 22.191406 C 17.480469 22.054688 17.789062 21.890625 18.078125 21.695312 C 18.371094 21.5 18.640625 21.277344 18.890625 21.03125 C 19.140625 20.78125 19.359375 20.511719 19.554688 20.21875 C 19.75 19.929688 19.914062 19.621094 20.050781 19.292969 C 20.183594 18.96875 20.285156 18.636719 20.355469 18.292969 C 20.421875 17.945312 20.457031 17.597656 20.457031 17.246094 C 20.457031 15.960938 19.605469 14.9375 18.125 13.289062 L 18.089844 13.253906 C 16.980469 12.015625 15.640625 10.527344 14.703125 8.492188 Z M 14.703125 8.492188 " fill-opacity="1" fill-rule="evenodd"/></g><path fill="#008000" d="M 11.417969 14.867188 C 12.296875 13.109375 13.253906 11.921875 13.65625 11.515625 L 14.414062 12.273438 C 14.105469 12.585938 13.207031 13.679688 12.375 15.347656 Z M 11.417969 14.867188 " fill-opacity="1" fill-rule="evenodd"/></svg>