<svg xmlns="http://www.w3.org/2000/svg" xmlns:xlink="http://www.w3.org/1999/xlink" width="111" zoomAndPan="magnify" viewBox="0 0 83.25 30.000001" height="40" preserveAspectRatio="xMidYMid meet" version="1.0"><defs><filter x="0%" y="0%" width="100%" height="100%" id="b91b2f5967"><feColorMatrix values="0 0 0 0 1 0 0 0 0 1 0 0 0 0 1 0 0 0 1 0" color-interpolation-filters="sRGB"/></filter><g/><clipPath id="f3bb61a13c"><path d="M 15 3.230469 L 23 3.230469 L 23 22 L 15 22 Z M 15 3.230469 " clip-rule="nonzero"/></clipPath><mask id="79deb3ee8d"><g filter="url(#b91b2f5967)"><rect x="-8.325" width="99.9" fill="#000000" y="-3" height="36.000001" fill-opacity="0.85"/></g></mask><clipPath id="b383d458a2"><path d="M 0.613281 0.230469 L 7.8125 0.230469 L 7.8125 18.601562 L 0.613281 18.601562 Z M 0.613281 0.230469 " clip-rule="nonzero"/></clipPath><clipPath id="07cf341804"><rect x="0" width="8" y="0" height="19"/></clipPath><mask id="64fee608fc"><g filter="url(#b91b2f5967)"><rect x="-8.325" width="99.9" fill="#000000" y="-3" height="36.000001" fill-opacity="0.85"/></g></mask><clipPath id="89f069ff72"><path d="M 0.0976562 0.359375 L 13.101562 0.359375 L 13.101562 13.601562 L 0.0976562 13.601562 Z M 0.0976562 0.359375 " clip-rule="nonzero"/></clipPath><clipPath id="37ae8a7021"><rect x="0" width="14" y="0" height="14"/></clipPath><clipPath id="3a03684417"><path d="M 19 17 L 37.253906 17 L 37.253906 25.003906 L 19 25.003906 Z M 19 17 " clip-rule="nonzero"/></clipPath><mask id="c5c1c0ad09"><g filter="url(#b91b2f5967)"><rect x="-8.325" width="99.9" fill="#000000" y="-3" height="36.000001" fill-opacity="0.85"/></g></mask><clipPath id="b101b0aa08"><path d="M 0.0976562 0.882812 L 18.253906 0.882812 L 18.253906 8 L 0.0976562 8 Z M 0.0976562 0.882812 " clip-rule="nonzero"/></clipPath><clipPath id="b4b6961fc9"><rect x="0" width="19" y="0" height="9"/></clipPath><clipPath id="c3d129bee2"><path d="M 0.980469 17 L 20 17 L 20 25.003906 L 0.980469 25.003906 Z M 0.980469 17 " clip-rule="nonzero"/></clipPath><mask id="2d83888b7e"><g filter="url(#b91b2f5967)"><rect x="-8.325" width="99.9" fill="#000000" y="-3" height="36.000001" fill-opacity="0.85"/></g></mask><clipPath id="a313fe377b"><path d="M 0.980469 0.882812 L 19.328125 0.882812 L 19.328125 8 L 0.980469 8 Z M 0.980469 0.882812 " clip-rule="nonzero"/></clipPath><clipPath id="89045b8512"><rect x="0" width="20" y="0" height="9"/></clipPath><mask id="5baec5d4c8"><g filter="url(#b91b2f5967)"><rect x="-8.325" width="99.9" fill="#000000" y="-3" height="36.000001" fill-opacity="0.85"/></g></mask><clipPath id="0726e7155b"><path d="M 0.0898438 0.359375 L 13.328125 0.359375 L 13.328125 13.601562 L 0.0898438 13.601562 Z M 0.0898438 0.359375 " clip-rule="nonzero"/></clipPath><clipPath id="abba2c1666"><rect x="0" width="14" y="0" height="14"/></clipPath></defs><g clip-path="url(#f3bb61a13c)"><g mask="url(#79deb3ee8d)"><g transform="matrix(1, 0, 0, 1, 15, 3)"><g clip-path="url(#07cf341804)"><g clip-path="url(#b383d458a2)"><path fill="#97c63a" d="M 4.175781 0.234375 C 2.03125 2.65625 0.730469 5.84375 0.730469 9.332031 C 0.730469 12.820312 2.03125 16.007812 4.175781 18.429688 C 6.320312 16.007812 7.621094 12.820312 7.621094 9.332031 C 7.621094 5.84375 6.320312 2.65625 4.175781 0.234375 " fill-opacity="1" fill-rule="evenodd"/></g></g></g></g></g><g mask="url(#64fee608fc)"><g transform="matrix(1, 0, 0, 1, 19, 8)"><g clip-path="url(#37ae8a7021)"><g clip-path="url(#89f069ff72)"><path fill="#74992e" d="M 13.042969 0.5625 C 9.8125 0.761719 6.640625 2.09375 4.171875 4.5625 C 1.707031 7.027344 0.375 10.199219 0.175781 13.429688 C 3.40625 13.230469 6.578125 11.898438 9.042969 9.433594 C 11.511719 6.964844 12.84375 3.792969 13.042969 0.5625 " fill-opacity="1" fill-rule="evenodd"/></g></g></g></g><g clip-path="url(#3a03684417)"><g mask="url(#c5c1c0ad09)"><g transform="matrix(1, 0, 0, 1, 19, 17)"><g clip-path="url(#b4b6961fc9)"><g clip-path="url(#b101b0aa08)"><path fill="#386910" d="M 18.371094 4.429688 C 15.949219 2.285156 12.761719 0.984375 9.273438 0.984375 C 5.785156 0.984375 2.597656 2.285156 0.175781 4.429688 C 2.597656 6.574219 5.785156 7.875 9.273438 7.875 C 12.761719 7.875 15.949219 6.574219 18.371094 4.429688 " fill-opacity="1" fill-rule="evenodd"/></g></g></g></g></g><g clip-path="url(#c3d129bee2)"><g mask="url(#2d83888b7e)"><g transform="matrix(1, 0, 0, 1, -0.000000000000000111, 17)"><g clip-path="url(#89045b8512)"><g clip-path="url(#a313fe377b)"><path fill="#386910" d="M 0.980469 4.429688 C 3.402344 6.574219 6.589844 7.875 10.078125 7.875 C 13.566406 7.875 16.753906 6.574219 19.175781 4.429688 C 16.753906 2.285156 13.566406 0.984375 10.078125 0.984375 C 6.589844 0.984375 3.402344 2.285156 0.980469 4.429688 " fill-opacity="1" fill-rule="evenodd"/></g></g></g></g></g><g mask="url(#5baec5d4c8)"><g transform="matrix(1, 0, 0, 1, 6, 8)"><g clip-path="url(#abba2c1666)"><g clip-path="url(#0726e7155b)"><path fill="#74992e" d="M 0.308594 0.5625 C 0.507812 3.792969 1.839844 6.964844 4.308594 9.433594 C 6.773438 11.898438 9.945312 13.230469 13.175781 13.429688 C 12.976562 10.199219 11.644531 7.027344 9.179688 4.5625 C 6.710938 2.09375 3.539062 0.761719 0.308594 0.5625 " fill-opacity="1" fill-rule="evenodd"/></g></g></g></g><g fill="#35323d" fill-opacity="1"><g transform="translate(40.179711, 21.7272)"><g><path d="M 4.28125 0 L 1.25 0 L 1.25 -10.875 L 4.28125 -10.875 Z M 2.765625 -12.375 C 2.296875 -12.375 1.898438 -12.535156 1.578125 -12.859375 C 1.253906 -13.179688 1.09375 -13.578125 1.09375 -14.046875 C 1.09375 -14.503906 1.253906 -14.898438 1.578125 -15.234375 C 1.898438 -15.566406 2.296875 -15.734375 2.765625 -15.734375 C 3.234375 -15.734375 3.628906 -15.566406 3.953125 -15.234375 C 4.273438 -14.898438 4.4375 -14.503906 4.4375 -14.046875 C 4.4375 -13.578125 4.273438 -13.179688 3.953125 -12.859375 C 3.628906 -12.535156 3.234375 -12.375 2.765625 -12.375 Z M 2.765625 -12.375 "/></g></g></g><g fill="#35323d" fill-opacity="1"><g transform="translate(45.728191, 21.7272)"><g><path d="M 1.84375 -11.796875 C 1.84375 -12.554688 1.953125 -13.210938 2.171875 -13.765625 C 2.398438 -14.316406 2.703125 -14.769531 3.078125 -15.125 C 3.460938 -15.476562 3.90625 -15.738281 4.40625 -15.90625 C 4.90625 -16.082031 5.429688 -16.171875 5.984375 -16.171875 C 6.328125 -16.171875 6.664062 -16.140625 7 -16.078125 C 7.332031 -16.023438 7.664062 -15.9375 8 -15.8125 L 7.765625 -13.59375 L 7.046875 -13.71875 C 6.921875 -13.726562 6.8125 -13.734375 6.71875 -13.734375 C 6.625 -13.742188 6.535156 -13.75 6.453125 -13.75 C 5.890625 -13.75 5.476562 -13.613281 5.21875 -13.34375 C 4.96875 -13.070312 4.84375 -12.679688 4.84375 -12.171875 L 4.84375 -10.875 L 7.765625 -10.875 L 7.765625 -8.1875 L 4.84375 -8.1875 L 4.84375 0 L 1.84375 0 L 1.84375 -8.1875 L 0.421875 -8.1875 L 0.421875 -9.78125 L 1.84375 -10.875 Z M 1.84375 -11.796875 "/></g></g></g><g fill="#35323d" fill-opacity="1"><g transform="translate(54.03996, 21.7272)"><g><path d="M 1.078125 -16.03125 L 4.109375 -16.03125 L 4.109375 0 L 1.078125 0 Z M 1.078125 -16.03125 "/></g></g></g><g fill="#35323d" fill-opacity="1"><g transform="translate(59.018245, 21.7272)"><g><path d="M 12.375 -10.875 L 12.375 0 L 9.765625 0 L 9.453125 -1.15625 C 9.023438 -0.59375 8.515625 -0.210938 7.921875 -0.015625 C 7.335938 0.171875 6.722656 0.265625 6.078125 0.265625 C 5.296875 0.265625 4.582031 0.113281 3.9375 -0.1875 C 3.289062 -0.488281 2.722656 -0.894531 2.234375 -1.40625 C 1.753906 -1.925781 1.378906 -2.535156 1.109375 -3.234375 C 0.835938 -3.929688 0.703125 -4.675781 0.703125 -5.46875 C 0.703125 -6.25 0.835938 -6.988281 1.109375 -7.6875 C 1.378906 -8.382812 1.753906 -8.988281 2.234375 -9.5 C 2.722656 -10.019531 3.289062 -10.429688 3.9375 -10.734375 C 4.582031 -11.035156 5.296875 -11.1875 6.078125 -11.1875 C 6.773438 -11.1875 7.414062 -11.078125 8 -10.859375 C 8.59375 -10.640625 9.078125 -10.289062 9.453125 -9.8125 L 9.765625 -10.875 Z M 9.34375 -5.421875 C 9.34375 -5.992188 9.265625 -6.472656 9.109375 -6.859375 C 8.960938 -7.242188 8.757812 -7.554688 8.5 -7.796875 C 8.238281 -8.035156 7.9375 -8.207031 7.59375 -8.3125 C 7.25 -8.425781 6.882812 -8.484375 6.5 -8.484375 C 6.101562 -8.484375 5.734375 -8.398438 5.390625 -8.234375 C 5.046875 -8.078125 4.738281 -7.863281 4.46875 -7.59375 C 4.207031 -7.332031 4.003906 -7.015625 3.859375 -6.640625 C 3.710938 -6.265625 3.640625 -5.875 3.640625 -5.46875 C 3.640625 -5.039062 3.710938 -4.644531 3.859375 -4.28125 C 4.003906 -3.914062 4.207031 -3.597656 4.46875 -3.328125 C 4.738281 -3.054688 5.046875 -2.835938 5.390625 -2.671875 C 5.734375 -2.515625 6.101562 -2.4375 6.5 -2.4375 C 7.28125 -2.4375 7.945312 -2.679688 8.5 -3.171875 C 9.050781 -3.660156 9.332031 -4.410156 9.34375 -5.421875 Z M 9.34375 -5.421875 "/></g></g></g><g fill="#35323d" fill-opacity="1"><g transform="translate(72.352165, 21.7272)"><g><path d="M 5 -3.90625 C 5 -3.394531 5.15625 -3 5.46875 -2.71875 C 5.78125 -2.4375 6.195312 -2.296875 6.71875 -2.296875 C 7.125 -2.296875 7.53125 -2.378906 7.9375 -2.546875 L 7.9375 0 C 7.570312 0.113281 7.1875 0.210938 6.78125 0.296875 C 6.375 0.378906 5.960938 0.421875 5.546875 0.421875 C 5.078125 0.421875 4.628906 0.359375 4.203125 0.234375 C 3.785156 0.117188 3.40625 -0.078125 3.0625 -0.359375 C 2.726562 -0.648438 2.460938 -1.03125 2.265625 -1.5 C 2.066406 -1.976562 1.96875 -2.566406 1.96875 -3.265625 L 1.96875 -8.1875 L 0.421875 -8.1875 L 0.421875 -10.21875 L 1.96875 -10.875 L 1.96875 -13.3125 L 5 -13.3125 L 5 -10.875 L 7.9375 -10.875 L 7.9375 -8.1875 L 5 -8.1875 Z M 5 -3.90625 "/></g></g></g></svg>