<svg xmlns="http://www.w3.org/2000/svg" xmlns:xlink="http://www.w3.org/1999/xlink" width="140" zoomAndPan="magnify" viewBox="0 0 104.88 30.000001" height="40" preserveAspectRatio="xMidYMid meet" version="1.0"><defs><filter x="0%" y="0%" width="100%" height="100%" id="ad91899947"><feColorMatrix values="0 0 0 0 1 0 0 0 0 1 0 0 0 0 1 0 0 0 1 0" color-interpolation-filters="sRGB"/></filter><g/><clipPath id="224371d159"><path d="M 16 3.546875 L 24 3.546875 L 24 22 L 16 22 Z M 16 3.546875 " clip-rule="nonzero"/></clipPath><mask id="df9abc65d9"><g filter="url(#ad91899947)"><rect x="-10.488" width="125.856" fill="#000000" y="-3" height="36.000001" fill-opacity="0.85"/></g></mask><clipPath id="0083b7c9ab"><path d="M 0.265625 0.546875 L 7.464844 0.546875 L 7.464844 18.832031 L 0.265625 18.832031 Z M 0.265625 0.546875 " clip-rule="nonzero"/></clipPath><clipPath id="9dad160fde"><rect x="0" width="8" y="0" height="19"/></clipPath><mask id="6b9d890666"><g filter="url(#ad91899947)"><rect x="-10.488" width="125.856" fill="#000000" y="-3" height="36.000001" fill-opacity="0.85"/></g></mask><clipPath id="9177002974"><path d="M 0.75 0.824219 L 13.988281 0.824219 L 13.988281 13.832031 L 0.75 13.832031 Z M 0.75 0.824219 " clip-rule="nonzero"/></clipPath><clipPath id="a4c26dc057"><rect x="0" width="14" y="0" height="14"/></clipPath><clipPath id="33d4120691"><path d="M 19 18 L 37.90625 18 L 37.90625 25.320312 L 19 25.320312 Z M 19 18 " clip-rule="nonzero"/></clipPath><mask id="b56989f559"><g filter="url(#ad91899947)"><rect x="-10.488" width="125.856" fill="#000000" y="-3" height="36.000001" fill-opacity="0.85"/></g></mask><clipPath id="9cafc540a8"><path d="M 0.75 0.117188 L 18.90625 0.117188 L 18.90625 7.316406 L 0.75 7.316406 Z M 0.75 0.117188 " clip-rule="nonzero"/></clipPath><clipPath id="341b000048"><rect x="0" width="19" y="0" height="8"/></clipPath><clipPath id="50895dd68e"><path d="M 1.632812 18 L 20 18 L 20 25.320312 L 1.632812 25.320312 Z M 1.632812 18 " clip-rule="nonzero"/></clipPath><mask id="ebf26a3145"><g filter="url(#ad91899947)"><rect x="-10.488" width="125.856" fill="#000000" y="-3" height="36.000001" fill-opacity="0.85"/></g></mask><clipPath id="2666984193"><path d="M 0.632812 0.117188 L 18.980469 0.117188 L 18.980469 7.316406 L 0.632812 7.316406 Z M 0.632812 0.117188 " clip-rule="nonzero"/></clipPath><clipPath id="984c996178"><rect x="0" width="19" y="0" height="8"/></clipPath><mask id="e86a64004d"><g filter="url(#ad91899947)"><rect x="-10.488" width="125.856" fill="#000000" y="-3" height="36.000001" fill-opacity="0.85"/></g></mask><clipPath id="30495c6963"><path d="M 0.742188 0.824219 L 13.980469 0.824219 L 13.980469 13.832031 L 0.742188 13.832031 Z M 0.742188 0.824219 " clip-rule="nonzero"/></clipPath><clipPath id="d3c47db9a8"><rect x="0" width="14" y="0" height="14"/></clipPath></defs><g clip-path="url(#224371d159)"><g mask="url(#df9abc65d9)"><g transform="matrix(1, 0, 0, 1, 16, 3)"><g clip-path="url(#9dad160fde)"><g clip-path="url(#0083b7c9ab)"><path fill="#97c63a" d="M 3.863281 0.546875 C 1.71875 2.976562 0.414062 6.164062 0.414062 9.660156 C 0.414062 13.15625 1.71875 16.34375 3.863281 18.773438 C 6.011719 16.347656 7.3125 13.15625 7.3125 9.660156 C 7.3125 6.164062 6.011719 2.976562 3.863281 0.546875 " fill-opacity="1" fill-rule="evenodd"/></g></g></g></g></g><g mask="url(#6b9d890666)"><g transform="matrix(1, 0, 0, 1, 19, 8)"><g clip-path="url(#a4c26dc057)"><g clip-path="url(#9177002974)"><path fill="#74992e" d="M 13.75 0.886719 C 10.515625 1.085938 7.339844 2.417969 4.867188 4.890625 C 2.394531 7.359375 1.0625 10.539062 0.863281 13.773438 C 4.097656 13.574219 7.273438 12.238281 9.746094 9.769531 C 12.21875 7.296875 13.550781 4.121094 13.75 0.886719 " fill-opacity="1" fill-rule="evenodd"/></g></g></g></g><g clip-path="url(#33d4120691)"><g mask="url(#b56989f559)"><g transform="matrix(1, 0, 0, 1, 19, 18)"><g clip-path="url(#341b000048)"><g clip-path="url(#9cafc540a8)"><path fill="#386910" d="M 19.085938 3.773438 C 16.660156 1.625 13.46875 0.324219 9.976562 0.324219 C 6.480469 0.324219 3.289062 1.625 0.863281 3.773438 C 3.289062 5.917969 6.480469 7.222656 9.976562 7.222656 C 13.46875 7.222656 16.660156 5.917969 19.085938 3.773438 " fill-opacity="1" fill-rule="evenodd"/></g></g></g></g></g><g clip-path="url(#50895dd68e)"><g mask="url(#ebf26a3145)"><g transform="matrix(1, 0, 0, 1, 1, 18)"><g clip-path="url(#984c996178)"><g clip-path="url(#2666984193)"><path fill="#386910" d="M 0.640625 3.773438 C 3.066406 5.917969 6.257812 7.222656 9.75 7.222656 C 13.246094 7.222656 16.4375 5.917969 18.863281 3.773438 C 16.4375 1.625 13.246094 0.324219 9.75 0.324219 C 6.257812 0.324219 3.066406 1.625 0.640625 3.773438 " fill-opacity="1" fill-rule="evenodd"/></g></g></g></g></g><g mask="url(#e86a64004d)"><g transform="matrix(1, 0, 0, 1, 6, 8)"><g clip-path="url(#d3c47db9a8)"><g clip-path="url(#30495c6963)"><path fill="#74992e" d="M 0.976562 0.886719 C 1.175781 4.121094 2.507812 7.296875 4.980469 9.769531 C 7.453125 12.238281 10.628906 13.574219 13.863281 13.773438 C 13.664062 10.539062 12.332031 7.359375 9.859375 4.890625 C 7.390625 2.417969 4.210938 1.082031 0.976562 0.886719 " fill-opacity="1" fill-rule="evenodd"/></g></g></g></g><g fill="#35323d" fill-opacity="1"><g transform="translate(41.20075, 22.074979)"><g><path d="M 4.28125 0 L 1.25 0 L 1.25 -10.890625 L 4.28125 -10.890625 Z M 2.765625 -12.390625 C 2.296875 -12.390625 1.898438 -12.550781 1.578125 -12.875 C 1.253906 -13.195312 1.09375 -13.59375 1.09375 -14.0625 C 1.09375 -14.53125 1.253906 -14.925781 1.578125 -15.25 C 1.898438 -15.582031 2.296875 -15.75 2.765625 -15.75 C 3.234375 -15.75 3.628906 -15.582031 3.953125 -15.25 C 4.273438 -14.925781 4.4375 -14.53125 4.4375 -14.0625 C 4.4375 -13.59375 4.273438 -13.195312 3.953125 -12.875 C 3.628906 -12.550781 3.234375 -12.390625 2.765625 -12.390625 Z M 2.765625 -12.390625 "/></g></g></g><g fill="#35323d" fill-opacity="1"><g transform="translate(46.759228, 22.074979)"><g><path d="M 7.046875 -11.203125 C 7.765625 -11.203125 8.4375 -11.050781 9.0625 -10.75 C 9.6875 -10.445312 10.222656 -10.035156 10.671875 -9.515625 C 11.128906 -9.003906 11.484375 -8.398438 11.734375 -7.703125 C 11.992188 -7.003906 12.125 -6.257812 12.125 -5.46875 L 12.125 0 L 9.15625 0 L 9.15625 -2 C 9.15625 -2.550781 9.160156 -3.125 9.171875 -3.71875 C 9.179688 -4.3125 9.1875 -4.820312 9.1875 -5.25 C 9.1875 -5.65625 9.117188 -6.054688 8.984375 -6.453125 C 8.847656 -6.847656 8.660156 -7.195312 8.421875 -7.5 C 8.191406 -7.800781 7.921875 -8.039062 7.609375 -8.21875 C 7.296875 -8.40625 6.960938 -8.5 6.609375 -8.5 C 6.273438 -8.5 5.953125 -8.4375 5.640625 -8.3125 C 5.335938 -8.1875 5.066406 -8.003906 4.828125 -7.765625 C 4.597656 -7.523438 4.410156 -7.222656 4.265625 -6.859375 C 4.128906 -6.492188 4.0625 -6.0625 4.0625 -5.5625 L 4.0625 0 L 1.015625 0 L 1.015625 -16.03125 L 4.0625 -16.03125 L 4.0625 -10.0625 C 4.445312 -10.425781 4.882812 -10.707031 5.375 -10.90625 C 5.863281 -11.101562 6.421875 -11.203125 7.046875 -11.203125 Z M 7.046875 -11.203125 "/></g></g></g><g fill="#35323d" fill-opacity="1"><g transform="translate(59.260325, 22.074979)"><g><path d="M 6.34375 -11.203125 C 7.125 -11.203125 7.859375 -11.050781 8.546875 -10.75 C 9.234375 -10.445312 9.832031 -10.035156 10.34375 -9.515625 C 10.851562 -9.003906 11.257812 -8.398438 11.5625 -7.703125 C 11.863281 -7.003906 12.015625 -6.257812 12.015625 -5.46875 C 12.015625 -4.675781 11.863281 -3.929688 11.5625 -3.234375 C 11.257812 -2.546875 10.851562 -1.941406 10.34375 -1.421875 C 9.832031 -0.898438 9.234375 -0.488281 8.546875 -0.1875 C 7.859375 0.113281 7.125 0.265625 6.34375 0.265625 C 5.550781 0.265625 4.8125 0.113281 4.125 -0.1875 C 3.4375 -0.488281 2.835938 -0.898438 2.328125 -1.421875 C 1.816406 -1.941406 1.410156 -2.546875 1.109375 -3.234375 C 0.804688 -3.929688 0.65625 -4.675781 0.65625 -5.46875 C 0.65625 -6.257812 0.804688 -7.003906 1.109375 -7.703125 C 1.410156 -8.398438 1.816406 -9.003906 2.328125 -9.515625 C 2.835938 -10.035156 3.4375 -10.445312 4.125 -10.75 C 4.8125 -11.050781 5.550781 -11.203125 6.34375 -11.203125 Z M 6.34375 -2.390625 C 6.707031 -2.390625 7.046875 -2.460938 7.359375 -2.609375 C 7.679688 -2.753906 7.960938 -2.957031 8.203125 -3.21875 C 8.441406 -3.476562 8.628906 -3.785156 8.765625 -4.140625 C 8.910156 -4.492188 8.984375 -4.894531 8.984375 -5.34375 C 8.984375 -5.78125 8.910156 -6.1875 8.765625 -6.5625 C 8.628906 -6.945312 8.441406 -7.28125 8.203125 -7.5625 C 7.960938 -7.851562 7.679688 -8.082031 7.359375 -8.25 C 7.046875 -8.414062 6.707031 -8.5 6.34375 -8.5 C 5.976562 -8.5 5.632812 -8.414062 5.3125 -8.25 C 4.988281 -8.082031 4.707031 -7.851562 4.46875 -7.5625 C 4.226562 -7.28125 4.035156 -6.945312 3.890625 -6.5625 C 3.753906 -6.1875 3.6875 -5.78125 3.6875 -5.34375 C 3.6875 -4.894531 3.753906 -4.492188 3.890625 -4.140625 C 4.035156 -3.785156 4.226562 -3.476562 4.46875 -3.21875 C 4.707031 -2.957031 4.988281 -2.753906 5.3125 -2.609375 C 5.632812 -2.460938 5.976562 -2.390625 6.34375 -2.390625 Z M 6.34375 -2.390625 "/></g></g></g><g fill="#35323d" fill-opacity="1"><g transform="translate(71.871268, 22.074979)"><g><path d="M 13.109375 -10.890625 C 13.503906 -10.890625 13.929688 -10.820312 14.390625 -10.6875 C 14.847656 -10.5625 15.269531 -10.328125 15.65625 -9.984375 C 16.039062 -9.648438 16.359375 -9.191406 16.609375 -8.609375 C 16.859375 -8.023438 16.984375 -7.28125 16.984375 -6.375 L 16.984375 0 L 13.953125 0 L 13.953125 -5.828125 C 13.953125 -6.265625 13.90625 -6.632812 13.8125 -6.9375 C 13.71875 -7.25 13.585938 -7.5 13.421875 -7.6875 C 13.265625 -7.875 13.078125 -8.007812 12.859375 -8.09375 C 12.648438 -8.175781 12.4375 -8.21875 12.21875 -8.21875 C 12.007812 -8.21875 11.800781 -8.179688 11.59375 -8.109375 C 11.394531 -8.035156 11.210938 -7.910156 11.046875 -7.734375 C 10.890625 -7.554688 10.757812 -7.3125 10.65625 -7 C 10.5625 -6.695312 10.515625 -6.3125 10.515625 -5.84375 L 10.515625 0 L 7.484375 0 L 7.484375 -5.828125 C 7.484375 -6.710938 7.328125 -7.332031 7.015625 -7.6875 C 6.710938 -8.039062 6.269531 -8.21875 5.6875 -8.21875 C 5.257812 -8.21875 4.878906 -8.019531 4.546875 -7.625 C 4.210938 -7.226562 4.046875 -6.613281 4.046875 -5.78125 L 4.046875 0 L 1.015625 0 L 1.015625 -10.890625 L 3.609375 -10.890625 L 4.046875 -9.890625 C 4.378906 -10.210938 4.769531 -10.457031 5.21875 -10.625 C 5.664062 -10.800781 6.144531 -10.890625 6.65625 -10.890625 C 6.914062 -10.890625 7.191406 -10.863281 7.484375 -10.8125 C 7.785156 -10.769531 8.070312 -10.679688 8.34375 -10.546875 C 8.625 -10.410156 8.890625 -10.234375 9.140625 -10.015625 C 9.398438 -9.804688 9.632812 -9.546875 9.84375 -9.234375 C 10.019531 -9.503906 10.234375 -9.742188 10.484375 -9.953125 C 10.734375 -10.171875 11.003906 -10.347656 11.296875 -10.484375 C 11.585938 -10.628906 11.890625 -10.734375 12.203125 -10.796875 C 12.515625 -10.859375 12.816406 -10.890625 13.109375 -10.890625 Z M 13.109375 -10.890625 "/></g></g></g><g fill="#35323d" fill-opacity="1"><g transform="translate(89.799023, 22.074979)"><g><path d="M 6.375 -11.203125 C 7.1875 -11.203125 7.929688 -11.035156 8.609375 -10.703125 C 9.285156 -10.378906 9.863281 -9.945312 10.34375 -9.40625 C 10.832031 -8.875 11.207031 -8.257812 11.46875 -7.5625 C 11.726562 -6.875 11.859375 -6.160156 11.859375 -5.421875 C 11.859375 -4.984375 11.800781 -4.515625 11.6875 -4.015625 L 3.90625 -4.015625 C 4.195312 -3.515625 4.613281 -3.09375 5.15625 -2.75 C 5.695312 -2.40625 6.285156 -2.234375 6.921875 -2.234375 C 7.546875 -2.234375 8.097656 -2.285156 8.578125 -2.390625 C 9.054688 -2.492188 9.507812 -2.628906 9.9375 -2.796875 L 10.9375 -0.921875 C 10.394531 -0.535156 9.773438 -0.238281 9.078125 -0.03125 C 8.390625 0.164062 7.648438 0.265625 6.859375 0.265625 C 5.992188 0.265625 5.1875 0.113281 4.4375 -0.1875 C 3.6875 -0.488281 3.03125 -0.894531 2.46875 -1.40625 C 1.914062 -1.914062 1.476562 -2.519531 1.15625 -3.21875 C 0.84375 -3.925781 0.6875 -4.675781 0.6875 -5.46875 C 0.6875 -6.25 0.832031 -6.984375 1.125 -7.671875 C 1.414062 -8.367188 1.820312 -8.976562 2.34375 -9.5 C 2.863281 -10.019531 3.46875 -10.429688 4.15625 -10.734375 C 4.84375 -11.046875 5.582031 -11.203125 6.375 -11.203125 Z M 8.859375 -6.375 C 8.679688 -7 8.363281 -7.507812 7.90625 -7.90625 C 7.457031 -8.300781 6.945312 -8.5 6.375 -8.5 C 5.789062 -8.5 5.257812 -8.300781 4.78125 -7.90625 C 4.300781 -7.507812 3.972656 -7 3.796875 -6.375 Z M 8.859375 -6.375 "/></g></g></g></svg>