<svg xmlns="http://www.w3.org/2000/svg" xmlns:xlink="http://www.w3.org/1999/xlink" width="147" zoomAndPan="magnify" viewBox="0 0 110.25 30.000001" height="40" preserveAspectRatio="xMidYMid meet" version="1.0"><defs><filter x="0%" y="0%" width="100%" height="100%" id="ab27c7269a"><feColorMatrix values="0 0 0 0 1 0 0 0 0 1 0 0 0 0 1 0 0 0 1 0" color-interpolation-filters="sRGB"/></filter><g/><clipPath id="cb9042c6f3"><path d="M 16 3.230469 L 24 3.230469 L 24 22 L 16 22 Z M 16 3.230469 " clip-rule="nonzero"/></clipPath><mask id="98f0d76e75"><g filter="url(#ab27c7269a)"><rect x="-11.025" width="132.3" fill="#000000" y="-3" height="36.000001" fill-opacity="0.85"/></g></mask><clipPath id="72f307793b"><path d="M 0.046875 0.230469 L 7.246094 0.230469 L 7.246094 18.601562 L 0.046875 18.601562 Z M 0.046875 0.230469 " clip-rule="nonzero"/></clipPath><clipPath id="017bf75714"><rect x="0" width="8" y="0" height="19"/></clipPath><mask id="83aa65c30f"><g filter="url(#ab27c7269a)"><rect x="-11.025" width="132.3" fill="#000000" y="-3" height="36.000001" fill-opacity="0.85"/></g></mask><clipPath id="db61d830eb"><path d="M 0.53125 0.359375 L 13.769531 0.359375 L 13.769531 13.601562 L 0.53125 13.601562 Z M 0.53125 0.359375 " clip-rule="nonzero"/></clipPath><clipPath id="218264ded7"><rect x="0" width="14" y="0" height="14"/></clipPath><clipPath id="cafd96c55f"><path d="M 19 17 L 37.6875 17 L 37.6875 25.003906 L 19 25.003906 Z M 19 17 " clip-rule="nonzero"/></clipPath><mask id="d06084d95d"><g filter="url(#ab27c7269a)"><rect x="-11.025" width="132.3" fill="#000000" y="-3" height="36.000001" fill-opacity="0.85"/></g></mask><clipPath id="aa5be0526b"><path d="M 0.53125 0.882812 L 18.6875 0.882812 L 18.6875 8 L 0.53125 8 Z M 0.53125 0.882812 " clip-rule="nonzero"/></clipPath><clipPath id="0a3eebea15"><rect x="0" width="19" y="0" height="9"/></clipPath><clipPath id="77890383a4"><path d="M 1.414062 17 L 20 17 L 20 25.003906 L 1.414062 25.003906 Z M 1.414062 17 " clip-rule="nonzero"/></clipPath><mask id="8f2a58c8f1"><g filter="url(#ab27c7269a)"><rect x="-11.025" width="132.3" fill="#000000" y="-3" height="36.000001" fill-opacity="0.85"/></g></mask><clipPath id="bbc00b39cc"><path d="M 0.414062 0.882812 L 18.765625 0.882812 L 18.765625 8 L 0.414062 8 Z M 0.414062 0.882812 " clip-rule="nonzero"/></clipPath><clipPath id="332a9fbb23"><rect x="0" width="19" y="0" height="9"/></clipPath><mask id="b93943edd8"><g filter="url(#ab27c7269a)"><rect x="-11.025" width="132.3" fill="#000000" y="-3" height="36.000001" fill-opacity="0.85"/></g></mask><clipPath id="d0806d9658"><path d="M 0.523438 0.359375 L 13.765625 0.359375 L 13.765625 13.601562 L 0.523438 13.601562 Z M 0.523438 0.359375 " clip-rule="nonzero"/></clipPath><clipPath id="993b745ae1"><rect x="0" width="14" y="0" height="14"/></clipPath></defs><g clip-path="url(#cb9042c6f3)"><g mask="url(#98f0d76e75)"><g transform="matrix(1, 0, 0, 1, 16, 3)"><g clip-path="url(#017bf75714)"><g clip-path="url(#72f307793b)"><path fill="#97c63a" d="M 3.617188 0.234375 C 1.472656 2.660156 0.171875 5.84375 0.171875 9.335938 C 0.171875 12.828125 1.472656 16.015625 3.617188 18.4375 C 5.761719 16.015625 7.0625 12.828125 7.0625 9.335938 C 7.0625 5.84375 5.761719 2.660156 3.617188 0.234375 " fill-opacity="1" fill-rule="evenodd"/></g></g></g></g></g><g mask="url(#83aa65c30f)"><g transform="matrix(1, 0, 0, 1, 19, 8)"><g clip-path="url(#218264ded7)"><g clip-path="url(#db61d830eb)"><path fill="#74992e" d="M 13.488281 0.566406 C 10.257812 0.765625 7.085938 2.097656 4.617188 4.566406 C 2.148438 7.035156 0.816406 10.207031 0.617188 13.4375 C 3.847656 13.242188 7.023438 11.910156 9.492188 9.441406 C 11.960938 6.972656 13.292969 3.796875 13.488281 0.566406 " fill-opacity="1" fill-rule="evenodd"/></g></g></g></g><g clip-path="url(#cafd96c55f)"><g mask="url(#d06084d95d)"><g transform="matrix(1, 0, 0, 1, 19, 17)"><g clip-path="url(#0a3eebea15)"><g clip-path="url(#aa5be0526b)"><path fill="#386910" d="M 18.820312 4.4375 C 16.398438 2.292969 13.210938 0.992188 9.71875 0.992188 C 6.230469 0.992188 3.042969 2.292969 0.617188 4.4375 C 3.042969 6.582031 6.230469 7.886719 9.71875 7.886719 C 13.210938 7.886719 16.398438 6.582031 18.820312 4.4375 " fill-opacity="1" fill-rule="evenodd"/></g></g></g></g></g><g clip-path="url(#77890383a4)"><g mask="url(#8f2a58c8f1)"><g transform="matrix(1, 0, 0, 1, 1, 17)"><g clip-path="url(#332a9fbb23)"><g clip-path="url(#bbc00b39cc)"><path fill="#386910" d="M 0.414062 4.4375 C 2.835938 6.582031 6.023438 7.886719 9.515625 7.886719 C 13.003906 7.886719 16.191406 6.582031 18.617188 4.4375 C 16.191406 2.292969 13.003906 0.992188 9.515625 0.992188 C 6.023438 0.992188 2.835938 2.292969 0.414062 4.4375 " fill-opacity="1" fill-rule="evenodd"/></g></g></g></g></g><g mask="url(#b93943edd8)"><g transform="matrix(1, 0, 0, 1, 6, 8)"><g clip-path="url(#993b745ae1)"><g clip-path="url(#d0806d9658)"><path fill="#74992e" d="M 0.746094 0.566406 C 0.941406 3.796875 2.273438 6.972656 4.742188 9.441406 C 7.210938 11.90625 10.386719 13.242188 13.617188 13.4375 C 13.417969 10.207031 12.085938 7.035156 9.617188 4.566406 C 7.148438 2.097656 3.976562 0.765625 0.746094 0.566406 " fill-opacity="1" fill-rule="evenodd"/></g></g></g></g><g fill="#35323d" fill-opacity="1"><g transform="translate(41.985795, 21.735495)"><g><path d="M 4.28125 0 L 1.25 0 L 1.25 -10.875 L 4.28125 -10.875 Z M 2.765625 -12.375 C 2.296875 -12.375 1.898438 -12.535156 1.578125 -12.859375 C 1.253906 -13.179688 1.09375 -13.578125 1.09375 -14.046875 C 1.09375 -14.503906 1.253906 -14.898438 1.578125 -15.234375 C 1.898438 -15.566406 2.296875 -15.734375 2.765625 -15.734375 C 3.234375 -15.734375 3.628906 -15.566406 3.953125 -15.234375 C 4.273438 -14.898438 4.4375 -14.503906 4.4375 -14.046875 C 4.4375 -13.578125 4.273438 -13.179688 3.953125 -12.859375 C 3.628906 -12.535156 3.234375 -12.375 2.765625 -12.375 Z M 2.765625 -12.375 "/></g></g></g><g fill="#35323d" fill-opacity="1"><g transform="translate(47.536721, 21.735495)"><g><path d="M 6.34375 -11.1875 C 7.113281 -11.1875 7.84375 -11.035156 8.53125 -10.734375 C 9.21875 -10.429688 9.816406 -10.019531 10.328125 -9.5 C 10.835938 -8.988281 11.242188 -8.382812 11.546875 -7.6875 C 11.847656 -6.988281 12 -6.25 12 -5.46875 C 12 -4.675781 11.847656 -3.929688 11.546875 -3.234375 C 11.242188 -2.535156 10.835938 -1.925781 10.328125 -1.40625 C 9.816406 -0.894531 9.21875 -0.488281 8.53125 -0.1875 C 7.84375 0.113281 7.113281 0.265625 6.34375 0.265625 C 5.550781 0.265625 4.8125 0.113281 4.125 -0.1875 C 3.4375 -0.488281 2.835938 -0.894531 2.328125 -1.40625 C 1.816406 -1.925781 1.410156 -2.535156 1.109375 -3.234375 C 0.804688 -3.929688 0.65625 -4.675781 0.65625 -5.46875 C 0.65625 -6.25 0.804688 -6.988281 1.109375 -7.6875 C 1.410156 -8.382812 1.816406 -8.988281 2.328125 -9.5 C 2.835938 -10.019531 3.4375 -10.429688 4.125 -10.734375 C 4.8125 -11.035156 5.550781 -11.1875 6.34375 -11.1875 Z M 6.34375 -2.390625 C 6.707031 -2.390625 7.046875 -2.460938 7.359375 -2.609375 C 7.671875 -2.753906 7.945312 -2.953125 8.1875 -3.203125 C 8.4375 -3.460938 8.628906 -3.769531 8.765625 -4.125 C 8.898438 -4.488281 8.96875 -4.890625 8.96875 -5.328125 C 8.96875 -5.765625 8.898438 -6.171875 8.765625 -6.546875 C 8.628906 -6.929688 8.4375 -7.265625 8.1875 -7.546875 C 7.945312 -7.835938 7.671875 -8.066406 7.359375 -8.234375 C 7.046875 -8.398438 6.707031 -8.484375 6.34375 -8.484375 C 5.976562 -8.484375 5.632812 -8.398438 5.3125 -8.234375 C 4.988281 -8.066406 4.707031 -7.835938 4.46875 -7.546875 C 4.226562 -7.265625 4.035156 -6.929688 3.890625 -6.546875 C 3.753906 -6.171875 3.6875 -5.765625 3.6875 -5.328125 C 3.6875 -4.890625 3.753906 -4.488281 3.890625 -4.125 C 4.035156 -3.769531 4.226562 -3.460938 4.46875 -3.203125 C 4.707031 -2.953125 4.988281 -2.753906 5.3125 -2.609375 C 5.632812 -2.460938 5.976562 -2.390625 6.34375 -2.390625 Z M 6.34375 -2.390625 "/></g></g></g><g fill="#35323d" fill-opacity="1"><g transform="translate(60.130531, 21.735495)"><g><path d="M 1.84375 -11.796875 C 1.84375 -12.554688 1.953125 -13.210938 2.171875 -13.765625 C 2.398438 -14.316406 2.703125 -14.769531 3.078125 -15.125 C 3.460938 -15.476562 3.90625 -15.738281 4.40625 -15.90625 C 4.90625 -16.082031 5.429688 -16.171875 5.984375 -16.171875 C 6.328125 -16.171875 6.664062 -16.140625 7 -16.078125 C 7.332031 -16.023438 7.664062 -15.9375 8 -15.8125 L 7.765625 -13.59375 L 7.046875 -13.71875 C 6.921875 -13.726562 6.8125 -13.734375 6.71875 -13.734375 C 6.625 -13.742188 6.535156 -13.75 6.453125 -13.75 C 5.890625 -13.75 5.476562 -13.613281 5.21875 -13.34375 C 4.96875 -13.070312 4.84375 -12.679688 4.84375 -12.171875 L 4.84375 -10.875 L 7.765625 -10.875 L 7.765625 -8.1875 L 4.84375 -8.1875 L 4.84375 0 L 1.84375 0 L 1.84375 -8.1875 L 0.421875 -8.1875 L 0.421875 -9.78125 L 1.84375 -10.875 Z M 1.84375 -11.796875 "/></g></g></g><g fill="#35323d" fill-opacity="1"><g transform="translate(68.445962, 21.735495)"><g><path d="M 1.84375 -11.796875 C 1.84375 -12.554688 1.953125 -13.210938 2.171875 -13.765625 C 2.398438 -14.316406 2.703125 -14.769531 3.078125 -15.125 C 3.460938 -15.476562 3.90625 -15.738281 4.40625 -15.90625 C 4.90625 -16.082031 5.429688 -16.171875 5.984375 -16.171875 C 6.328125 -16.171875 6.664062 -16.140625 7 -16.078125 C 7.332031 -16.023438 7.664062 -15.9375 8 -15.8125 L 7.765625 -13.59375 L 7.046875 -13.71875 C 6.921875 -13.726562 6.8125 -13.734375 6.71875 -13.734375 C 6.625 -13.742188 6.535156 -13.75 6.453125 -13.75 C 5.890625 -13.75 5.476562 -13.613281 5.21875 -13.34375 C 4.96875 -13.070312 4.84375 -12.679688 4.84375 -12.171875 L 4.84375 -10.875 L 7.765625 -10.875 L 7.765625 -8.1875 L 4.84375 -8.1875 L 4.84375 0 L 1.84375 0 L 1.84375 -8.1875 L 0.421875 -8.1875 L 0.421875 -9.78125 L 1.84375 -10.875 Z M 1.84375 -11.796875 "/></g></g></g><g fill="#35323d" fill-opacity="1"><g transform="translate(76.761394, 21.735495)"><g><path d="M 4.28125 0 L 1.25 0 L 1.25 -10.875 L 4.28125 -10.875 Z M 2.765625 -12.375 C 2.296875 -12.375 1.898438 -12.535156 1.578125 -12.859375 C 1.253906 -13.179688 1.09375 -13.578125 1.09375 -14.046875 C 1.09375 -14.503906 1.253906 -14.898438 1.578125 -15.234375 C 1.898438 -15.566406 2.296875 -15.734375 2.765625 -15.734375 C 3.234375 -15.734375 3.628906 -15.566406 3.953125 -15.234375 C 4.273438 -14.898438 4.4375 -14.503906 4.4375 -14.046875 C 4.4375 -13.578125 4.273438 -13.179688 3.953125 -12.859375 C 3.628906 -12.535156 3.234375 -12.375 2.765625 -12.375 Z M 2.765625 -12.375 "/></g></g></g><g fill="#35323d" fill-opacity="1"><g transform="translate(82.31232, 21.735495)"><g><path d="M 6.34375 -8.484375 C 5.976562 -8.484375 5.632812 -8.398438 5.3125 -8.234375 C 4.988281 -8.066406 4.707031 -7.835938 4.46875 -7.546875 C 4.226562 -7.265625 4.035156 -6.929688 3.890625 -6.546875 C 3.753906 -6.171875 3.6875 -5.765625 3.6875 -5.328125 C 3.6875 -4.890625 3.753906 -4.488281 3.890625 -4.125 C 4.035156 -3.769531 4.226562 -3.460938 4.46875 -3.203125 C 4.707031 -2.953125 4.988281 -2.753906 5.3125 -2.609375 C 5.632812 -2.460938 5.976562 -2.390625 6.34375 -2.390625 C 6.789062 -2.390625 7.226562 -2.492188 7.65625 -2.703125 C 8.09375 -2.921875 8.46875 -3.21875 8.78125 -3.59375 L 10.640625 -1.75 C 10.128906 -1.132812 9.5 -0.644531 8.75 -0.28125 C 8.007812 0.0820312 7.207031 0.265625 6.34375 0.265625 C 5.550781 0.265625 4.8125 0.113281 4.125 -0.1875 C 3.4375 -0.488281 2.835938 -0.894531 2.328125 -1.40625 C 1.816406 -1.925781 1.410156 -2.535156 1.109375 -3.234375 C 0.804688 -3.929688 0.65625 -4.675781 0.65625 -5.46875 C 0.65625 -6.25 0.804688 -6.988281 1.109375 -7.6875 C 1.410156 -8.382812 1.816406 -8.988281 2.328125 -9.5 C 2.835938 -10.019531 3.4375 -10.429688 4.125 -10.734375 C 4.8125 -11.035156 5.550781 -11.1875 6.34375 -11.1875 C 7.226562 -11.1875 8.050781 -10.992188 8.8125 -10.609375 C 9.570312 -10.234375 10.21875 -9.71875 10.75 -9.0625 L 8.640625 -7.4375 C 8.210938 -7.832031 7.828125 -8.101562 7.484375 -8.25 C 7.140625 -8.40625 6.757812 -8.484375 6.34375 -8.484375 Z M 6.34375 -8.484375 "/></g></g></g><g fill="#35323d" fill-opacity="1"><g transform="translate(93.611653, 21.735495)"><g><path d="M 6.359375 -11.1875 C 7.179688 -11.1875 7.925781 -11.019531 8.59375 -10.6875 C 9.269531 -10.363281 9.847656 -9.929688 10.328125 -9.390625 C 10.816406 -8.859375 11.191406 -8.242188 11.453125 -7.546875 C 11.710938 -6.859375 11.84375 -6.148438 11.84375 -5.421875 C 11.84375 -4.984375 11.785156 -4.515625 11.671875 -4.015625 L 3.90625 -4.015625 C 4.195312 -3.515625 4.613281 -3.09375 5.15625 -2.75 C 5.695312 -2.40625 6.28125 -2.234375 6.90625 -2.234375 C 7.539062 -2.234375 8.09375 -2.285156 8.5625 -2.390625 C 9.039062 -2.492188 9.492188 -2.625 9.921875 -2.78125 L 10.921875 -0.921875 C 10.378906 -0.535156 9.757812 -0.238281 9.0625 -0.03125 C 8.375 0.164062 7.632812 0.265625 6.84375 0.265625 C 5.976562 0.265625 5.171875 0.113281 4.421875 -0.1875 C 3.679688 -0.488281 3.03125 -0.894531 2.46875 -1.40625 C 1.914062 -1.914062 1.476562 -2.519531 1.15625 -3.21875 C 0.84375 -3.925781 0.6875 -4.675781 0.6875 -5.46875 C 0.6875 -6.238281 0.832031 -6.96875 1.125 -7.65625 C 1.414062 -8.351562 1.816406 -8.960938 2.328125 -9.484375 C 2.847656 -10.003906 3.453125 -10.414062 4.140625 -10.71875 C 4.828125 -11.03125 5.566406 -11.1875 6.359375 -11.1875 Z M 8.84375 -6.359375 C 8.664062 -6.992188 8.347656 -7.503906 7.890625 -7.890625 C 7.441406 -8.285156 6.929688 -8.484375 6.359375 -8.484375 C 5.773438 -8.484375 5.242188 -8.285156 4.765625 -7.890625 C 4.296875 -7.503906 3.972656 -6.992188 3.796875 -6.359375 Z M 8.84375 -6.359375 "/></g></g></g></svg>