<svg xmlns="http://www.w3.org/2000/svg" xmlns:xlink="http://www.w3.org/1999/xlink" width="214" zoomAndPan="magnify" viewBox="0 0 160.5 30.000001" height="40" preserveAspectRatio="xMidYMid meet" version="1.0"><defs><filter x="0%" y="0%" width="100%" height="100%" id="06fe9f4462"><feColorMatrix values="0 0 0 0 1 0 0 0 0 1 0 0 0 0 1 0 0 0 1 0" color-interpolation-filters="sRGB"/></filter><g/><clipPath id="56ca281f5c"><path d="M 16 3.546875 L 25 3.546875 L 25 22 L 16 22 Z M 16 3.546875 " clip-rule="nonzero"/></clipPath><mask id="87165459bb"><g filter="url(#06fe9f4462)"><rect x="-16.05" width="192.6" fill="#000000" y="-3" height="36.000001" fill-opacity="0.85"/></g></mask><clipPath id="9d449c7ecb"><path d="M 1 0.546875 L 8.179688 0.546875 L 8.179688 18.832031 L 1 18.832031 Z M 1 0.546875 " clip-rule="nonzero"/></clipPath><clipPath id="6e3e993c3d"><rect x="0" width="9" y="0" height="19"/></clipPath><mask id="b4200618a5"><g filter="url(#06fe9f4462)"><rect x="-16.05" width="192.6" fill="#000000" y="-3" height="36.000001" fill-opacity="0.85"/></g></mask><clipPath id="237f1a2976"><path d="M 0.464844 0.824219 L 13.703125 0.824219 L 13.703125 13.832031 L 0.464844 13.832031 Z M 0.464844 0.824219 " clip-rule="nonzero"/></clipPath><clipPath id="1ba1c15ea7"><rect x="0" width="14" y="0" height="14"/></clipPath><clipPath id="2edab73381"><path d="M 20 18 L 38.621094 18 L 38.621094 25.320312 L 20 25.320312 Z M 20 18 " clip-rule="nonzero"/></clipPath><mask id="ec874f1add"><g filter="url(#06fe9f4462)"><rect x="-16.05" width="192.6" fill="#000000" y="-3" height="36.000001" fill-opacity="0.85"/></g></mask><clipPath id="561253e374"><path d="M 0.464844 0.117188 L 18.621094 0.117188 L 18.621094 7.316406 L 0.464844 7.316406 Z M 0.464844 0.117188 " clip-rule="nonzero"/></clipPath><clipPath id="2488b2b836"><rect x="0" width="19" y="0" height="8"/></clipPath><clipPath id="14e530c7e5"><path d="M 2.347656 18 L 21 18 L 21 25.320312 L 2.347656 25.320312 Z M 2.347656 18 " clip-rule="nonzero"/></clipPath><mask id="df71b6c9f6"><g filter="url(#06fe9f4462)"><rect x="-16.05" width="192.6" fill="#000000" y="-3" height="36.000001" fill-opacity="0.85"/></g></mask><clipPath id="a07a62b0ff"><path d="M 0.347656 0.117188 L 18.695312 0.117188 L 18.695312 7.316406 L 0.347656 7.316406 Z M 0.347656 0.117188 " clip-rule="nonzero"/></clipPath><clipPath id="4c6530c2e5"><rect x="0" width="19" y="0" height="8"/></clipPath><mask id="9a5bbc005c"><g filter="url(#06fe9f4462)"><rect x="-16.05" width="192.6" fill="#000000" y="-3" height="36.000001" fill-opacity="0.85"/></g></mask><clipPath id="316a557e08"><path d="M 0.457031 0.824219 L 13.695312 0.824219 L 13.695312 13.832031 L 0.457031 13.832031 Z M 0.457031 0.824219 " clip-rule="nonzero"/></clipPath><clipPath id="93e4570aa9"><rect x="0" width="14" y="0" height="14"/></clipPath></defs><g clip-path="url(#56ca281f5c)"><g mask="url(#87165459bb)"><g transform="matrix(1, 0, 0, 1, 16, 3)"><g clip-path="url(#6e3e993c3d)"><g clip-path="url(#9d449c7ecb)"><path fill="#97c63a" d="M 4.578125 0.546875 C 2.429688 2.976562 1.128906 6.164062 1.128906 9.660156 C 1.128906 13.15625 2.429688 16.34375 4.578125 18.773438 C 6.722656 16.347656 8.027344 13.15625 8.027344 9.660156 C 8.027344 6.164062 6.722656 2.976562 4.578125 0.546875 " fill-opacity="1" fill-rule="evenodd"/></g></g></g></g></g><g mask="url(#b4200618a5)"><g transform="matrix(1, 0, 0, 1, 20, 8)"><g clip-path="url(#1ba1c15ea7)"><g clip-path="url(#237f1a2976)"><path fill="#74992e" d="M 13.464844 0.886719 C 10.230469 1.085938 7.050781 2.417969 4.582031 4.890625 C 2.109375 7.359375 0.773438 10.539062 0.578125 13.773438 C 3.8125 13.574219 6.988281 12.238281 9.460938 9.769531 C 11.929688 7.296875 13.265625 4.121094 13.464844 0.886719 " fill-opacity="1" fill-rule="evenodd"/></g></g></g></g><g clip-path="url(#2edab73381)"><g mask="url(#ec874f1add)"><g transform="matrix(1, 0, 0, 1, 20, 18)"><g clip-path="url(#2488b2b836)"><g clip-path="url(#561253e374)"><path fill="#386910" d="M 18.800781 3.773438 C 16.375 1.625 13.183594 0.324219 9.6875 0.324219 C 6.195312 0.324219 3.003906 1.625 0.578125 3.773438 C 3.003906 5.917969 6.195312 7.222656 9.6875 7.222656 C 13.183594 7.222656 16.375 5.917969 18.800781 3.773438 " fill-opacity="1" fill-rule="evenodd"/></g></g></g></g></g><g clip-path="url(#14e530c7e5)"><g mask="url(#df71b6c9f6)"><g transform="matrix(1, 0, 0, 1, 2, 18)"><g clip-path="url(#4c6530c2e5)"><g clip-path="url(#a07a62b0ff)"><path fill="#386910" d="M 0.351562 3.773438 C 2.78125 5.917969 5.96875 7.222656 9.464844 7.222656 C 12.960938 7.222656 16.148438 5.917969 18.578125 3.773438 C 16.148438 1.625 12.960938 0.324219 9.464844 0.324219 C 5.96875 0.324219 2.78125 1.625 0.351562 3.773438 " fill-opacity="1" fill-rule="evenodd"/></g></g></g></g></g><g mask="url(#9a5bbc005c)"><g transform="matrix(1, 0, 0, 1, 7, 8)"><g clip-path="url(#93e4570aa9)"><g clip-path="url(#316a557e08)"><path fill="#74992e" d="M 0.691406 0.886719 C 0.886719 4.121094 2.222656 7.296875 4.695312 9.769531 C 7.164062 12.238281 10.34375 13.574219 13.578125 13.773438 C 13.378906 10.539062 12.042969 7.359375 9.574219 4.890625 C 7.101562 2.417969 3.925781 1.082031 0.691406 0.886719 " fill-opacity="1" fill-rule="evenodd"/></g></g></g></g><g fill="#35323d" fill-opacity="1"><g transform="translate(42.543335, 22.074979)"><g><path d="M 4.28125 0 L 1.25 0 L 1.25 -10.890625 L 4.28125 -10.890625 Z M 2.765625 -12.390625 C 2.296875 -12.390625 1.898438 -12.550781 1.578125 -12.875 C 1.253906 -13.195312 1.09375 -13.59375 1.09375 -14.0625 C 1.09375 -14.53125 1.253906 -14.925781 1.578125 -15.25 C 1.898438 -15.582031 2.296875 -15.75 2.765625 -15.75 C 3.234375 -15.75 3.628906 -15.582031 3.953125 -15.25 C 4.273438 -14.925781 4.4375 -14.53125 4.4375 -14.0625 C 4.4375 -13.59375 4.273438 -13.195312 3.953125 -12.875 C 3.628906 -12.550781 3.234375 -12.390625 2.765625 -12.390625 Z M 2.765625 -12.390625 "/></g></g></g><g fill="#35323d" fill-opacity="1"><g transform="translate(48.101813, 22.074979)"><g><path d="M 3.96875 -9.375 C 4.125 -9.613281 4.296875 -9.835938 4.484375 -10.046875 C 4.671875 -10.265625 4.894531 -10.457031 5.15625 -10.625 C 5.425781 -10.789062 5.726562 -10.925781 6.0625 -11.03125 C 6.394531 -11.132812 6.773438 -11.1875 7.203125 -11.1875 C 7.703125 -11.1875 8.28125 -11.097656 8.9375 -10.921875 L 8.65625 -8.21875 C 8.5 -8.25 8.335938 -8.285156 8.171875 -8.328125 C 8.035156 -8.359375 7.882812 -8.382812 7.71875 -8.40625 C 7.5625 -8.425781 7.421875 -8.4375 7.296875 -8.4375 C 6.828125 -8.4375 6.390625 -8.367188 5.984375 -8.234375 C 5.578125 -8.109375 5.226562 -7.925781 4.9375 -7.6875 C 4.644531 -7.457031 4.410156 -7.175781 4.234375 -6.84375 C 4.054688 -6.507812 3.96875 -6.15625 3.96875 -5.78125 L 3.96875 0 L 0.9375 0 L 0.9375 -10.890625 L 3.6875 -10.890625 Z M 3.96875 -9.375 "/></g></g></g><g fill="#35323d" fill-opacity="1"><g transform="translate(57.153572, 22.074979)"><g><path d="M 6.375 -11.203125 C 7.1875 -11.203125 7.929688 -11.035156 8.609375 -10.703125 C 9.285156 -10.378906 9.863281 -9.945312 10.34375 -9.40625 C 10.832031 -8.875 11.207031 -8.257812 11.46875 -7.5625 C 11.726562 -6.875 11.859375 -6.160156 11.859375 -5.421875 C 11.859375 -4.984375 11.800781 -4.515625 11.6875 -4.015625 L 3.90625 -4.015625 C 4.195312 -3.515625 4.613281 -3.09375 5.15625 -2.75 C 5.695312 -2.40625 6.285156 -2.234375 6.921875 -2.234375 C 7.546875 -2.234375 8.097656 -2.285156 8.578125 -2.390625 C 9.054688 -2.492188 9.507812 -2.628906 9.9375 -2.796875 L 10.9375 -0.921875 C 10.394531 -0.535156 9.773438 -0.238281 9.078125 -0.03125 C 8.390625 0.164062 7.648438 0.265625 6.859375 0.265625 C 5.992188 0.265625 5.1875 0.113281 4.4375 -0.1875 C 3.6875 -0.488281 3.03125 -0.894531 2.46875 -1.40625 C 1.914062 -1.914062 1.476562 -2.519531 1.15625 -3.21875 C 0.84375 -3.925781 0.6875 -4.675781 0.6875 -5.46875 C 0.6875 -6.25 0.832031 -6.984375 1.125 -7.671875 C 1.414062 -8.367188 1.820312 -8.976562 2.34375 -9.5 C 2.863281 -10.019531 3.46875 -10.429688 4.15625 -10.734375 C 4.84375 -11.046875 5.582031 -11.203125 6.375 -11.203125 Z M 8.859375 -6.375 C 8.679688 -7 8.363281 -7.507812 7.90625 -7.90625 C 7.457031 -8.300781 6.945312 -8.5 6.375 -8.5 C 5.789062 -8.5 5.257812 -8.300781 4.78125 -7.90625 C 4.300781 -7.507812 3.972656 -7 3.796875 -6.375 Z M 8.859375 -6.375 "/></g></g></g><g fill="#35323d" fill-opacity="1"><g transform="translate(70.225891, 22.074979)"><g><path d="M 7.90625 -5.71875 C 8.707031 -5.144531 9.109375 -4.328125 9.109375 -3.265625 C 9.109375 -2.785156 8.992188 -2.332031 8.765625 -1.90625 C 8.546875 -1.488281 8.238281 -1.117188 7.84375 -0.796875 C 7.445312 -0.472656 6.984375 -0.21875 6.453125 -0.03125 C 5.929688 0.144531 5.367188 0.234375 4.765625 0.234375 C 4.316406 0.234375 3.875 0.175781 3.4375 0.0625 C 3.007812 -0.0507812 2.609375 -0.207031 2.234375 -0.40625 C 1.867188 -0.613281 1.550781 -0.859375 1.28125 -1.140625 C 1.007812 -1.429688 0.8125 -1.753906 0.6875 -2.109375 C 1.019531 -2.265625 1.390625 -2.441406 1.796875 -2.640625 C 2.210938 -2.835938 2.570312 -3.019531 2.875 -3.1875 C 3.007812 -2.96875 3.210938 -2.765625 3.484375 -2.578125 C 3.765625 -2.398438 4.148438 -2.3125 4.640625 -2.3125 C 5.128906 -2.3125 5.488281 -2.425781 5.71875 -2.65625 C 5.957031 -2.894531 6.078125 -3.113281 6.078125 -3.3125 C 6.078125 -3.457031 6 -3.59375 5.84375 -3.71875 C 5.6875 -3.84375 5.503906 -3.941406 5.296875 -4.015625 C 5.003906 -4.140625 4.757812 -4.203125 4.5625 -4.203125 C 4.375 -4.210938 4.15625 -4.253906 3.90625 -4.328125 C 3.113281 -4.515625 2.507812 -4.765625 2.09375 -5.078125 C 1.675781 -5.398438 1.375 -5.722656 1.1875 -6.046875 C 1 -6.367188 0.890625 -6.675781 0.859375 -6.96875 C 0.835938 -7.257812 0.828125 -7.492188 0.828125 -7.671875 C 0.828125 -8.140625 0.929688 -8.582031 1.140625 -9 C 1.347656 -9.425781 1.628906 -9.796875 1.984375 -10.109375 C 2.347656 -10.429688 2.765625 -10.6875 3.234375 -10.875 C 3.710938 -11.0625 4.222656 -11.15625 4.765625 -11.15625 C 5.222656 -11.15625 5.65625 -11.085938 6.0625 -10.953125 C 6.46875 -10.828125 6.835938 -10.644531 7.171875 -10.40625 C 7.515625 -10.175781 7.804688 -9.898438 8.046875 -9.578125 C 8.296875 -9.253906 8.476562 -8.894531 8.59375 -8.5 L 6.234375 -7.71875 C 6.148438 -7.976562 5.972656 -8.1875 5.703125 -8.34375 C 5.429688 -8.507812 5.140625 -8.59375 4.828125 -8.59375 C 4.523438 -8.59375 4.273438 -8.488281 4.078125 -8.28125 C 3.890625 -8.070312 3.796875 -7.867188 3.796875 -7.671875 C 3.796875 -7.421875 3.882812 -7.222656 4.0625 -7.078125 C 4.25 -6.941406 4.453125 -6.84375 4.671875 -6.78125 C 4.835938 -6.757812 4.992188 -6.734375 5.140625 -6.703125 C 5.296875 -6.679688 5.453125 -6.660156 5.609375 -6.640625 C 6.117188 -6.515625 6.554688 -6.378906 6.921875 -6.234375 C 7.296875 -6.085938 7.625 -5.914062 7.90625 -5.71875 Z M 7.90625 -5.71875 "/></g></g></g><g fill="#35323d" fill-opacity="1"><g transform="translate(79.958734, 22.074979)"><g><path d="M 5.015625 -3.90625 C 5.015625 -3.394531 5.171875 -3 5.484375 -2.71875 C 5.796875 -2.445312 6.207031 -2.3125 6.71875 -2.3125 C 7.132812 -2.3125 7.546875 -2.390625 7.953125 -2.546875 L 7.953125 0 C 7.585938 0.113281 7.195312 0.210938 6.78125 0.296875 C 6.375 0.378906 5.96875 0.421875 5.5625 0.421875 C 5.09375 0.421875 4.644531 0.359375 4.21875 0.234375 C 3.789062 0.117188 3.410156 -0.078125 3.078125 -0.359375 C 2.742188 -0.648438 2.476562 -1.03125 2.28125 -1.5 C 2.082031 -1.976562 1.984375 -2.566406 1.984375 -3.265625 L 1.984375 -8.1875 L 0.421875 -8.1875 L 0.421875 -10.234375 L 1.984375 -10.890625 L 1.984375 -13.328125 L 5.015625 -13.328125 L 5.015625 -10.890625 L 7.953125 -10.890625 L 7.953125 -8.1875 L 5.015625 -8.1875 Z M 5.015625 -3.90625 "/></g></g></g><g fill="#35323d" fill-opacity="1"><g transform="translate(88.373354, 22.074979)"><g><path d="M 12.390625 -10.890625 L 12.390625 0 L 9.78125 0 L 9.46875 -1.171875 C 9.039062 -0.597656 8.53125 -0.210938 7.9375 -0.015625 C 7.34375 0.171875 6.722656 0.265625 6.078125 0.265625 C 5.304688 0.265625 4.59375 0.113281 3.9375 -0.1875 C 3.289062 -0.488281 2.722656 -0.898438 2.234375 -1.421875 C 1.753906 -1.941406 1.378906 -2.546875 1.109375 -3.234375 C 0.835938 -3.929688 0.703125 -4.675781 0.703125 -5.46875 C 0.703125 -6.257812 0.835938 -7.003906 1.109375 -7.703125 C 1.378906 -8.398438 1.753906 -9.003906 2.234375 -9.515625 C 2.722656 -10.035156 3.289062 -10.445312 3.9375 -10.75 C 4.59375 -11.050781 5.304688 -11.203125 6.078125 -11.203125 C 6.785156 -11.203125 7.429688 -11.09375 8.015625 -10.875 C 8.597656 -10.65625 9.082031 -10.300781 9.46875 -9.8125 L 9.78125 -10.890625 Z M 9.359375 -5.421875 C 9.359375 -5.992188 9.28125 -6.472656 9.125 -6.859375 C 8.96875 -7.253906 8.757812 -7.570312 8.5 -7.8125 C 8.25 -8.050781 7.953125 -8.222656 7.609375 -8.328125 C 7.265625 -8.441406 6.894531 -8.5 6.5 -8.5 C 6.101562 -8.5 5.734375 -8.414062 5.390625 -8.25 C 5.046875 -8.09375 4.742188 -7.878906 4.484375 -7.609375 C 4.222656 -7.335938 4.015625 -7.015625 3.859375 -6.640625 C 3.710938 -6.265625 3.640625 -5.875 3.640625 -5.46875 C 3.640625 -5.039062 3.710938 -4.644531 3.859375 -4.28125 C 4.015625 -3.914062 4.222656 -3.597656 4.484375 -3.328125 C 4.742188 -3.054688 5.046875 -2.835938 5.390625 -2.671875 C 5.734375 -2.515625 6.101562 -2.4375 6.5 -2.4375 C 7.289062 -2.4375 7.960938 -2.679688 8.515625 -3.171875 C 9.066406 -3.660156 9.347656 -4.410156 9.359375 -5.421875 Z M 9.359375 -5.421875 "/></g></g></g><g fill="#35323d" fill-opacity="1"><g transform="translate(101.731299, 22.074979)"><g><path d="M 7.890625 -10.890625 L 10.921875 -10.890625 L 10.921875 0 L 8.328125 0 L 7.890625 -0.828125 C 7.535156 -0.585938 7.132812 -0.390625 6.6875 -0.234375 C 6.238281 -0.078125 5.757812 0 5.25 0 C 4.851562 0 4.398438 -0.0546875 3.890625 -0.171875 C 3.390625 -0.285156 2.921875 -0.503906 2.484375 -0.828125 C 2.046875 -1.148438 1.675781 -1.597656 1.375 -2.171875 C 1.070312 -2.742188 0.921875 -3.484375 0.921875 -4.390625 L 0.921875 -10.890625 L 3.96875 -10.890625 L 3.96875 -4.5 C 3.96875 -4.164062 4.023438 -3.878906 4.140625 -3.640625 C 4.253906 -3.410156 4.398438 -3.222656 4.578125 -3.078125 C 4.765625 -2.941406 4.972656 -2.84375 5.203125 -2.78125 C 5.441406 -2.71875 5.6875 -2.6875 5.9375 -2.6875 C 6.125 -2.6875 6.328125 -2.71875 6.546875 -2.78125 C 6.773438 -2.84375 6.988281 -2.945312 7.1875 -3.09375 C 7.382812 -3.238281 7.550781 -3.425781 7.6875 -3.65625 C 7.820312 -3.894531 7.890625 -4.175781 7.890625 -4.5 Z M 7.890625 -10.890625 "/></g></g></g><g fill="#35323d" fill-opacity="1"><g transform="translate(113.661172, 22.074979)"><g><path d="M 3.96875 -9.375 C 4.125 -9.613281 4.296875 -9.835938 4.484375 -10.046875 C 4.671875 -10.265625 4.894531 -10.457031 5.15625 -10.625 C 5.425781 -10.789062 5.726562 -10.925781 6.0625 -11.03125 C 6.394531 -11.132812 6.773438 -11.1875 7.203125 -11.1875 C 7.703125 -11.1875 8.28125 -11.097656 8.9375 -10.921875 L 8.65625 -8.21875 C 8.5 -8.25 8.335938 -8.285156 8.171875 -8.328125 C 8.035156 -8.359375 7.882812 -8.382812 7.71875 -8.40625 C 7.5625 -8.425781 7.421875 -8.4375 7.296875 -8.4375 C 6.828125 -8.4375 6.390625 -8.367188 5.984375 -8.234375 C 5.578125 -8.109375 5.226562 -7.925781 4.9375 -7.6875 C 4.644531 -7.457031 4.410156 -7.175781 4.234375 -6.84375 C 4.054688 -6.507812 3.96875 -6.15625 3.96875 -5.78125 L 3.96875 0 L 0.9375 0 L 0.9375 -10.890625 L 3.6875 -10.890625 Z M 3.96875 -9.375 "/></g></g></g><g fill="#35323d" fill-opacity="1"><g transform="translate(122.712932, 22.074979)"><g><path d="M 12.390625 -10.890625 L 12.390625 0 L 9.78125 0 L 9.46875 -1.171875 C 9.039062 -0.597656 8.53125 -0.210938 7.9375 -0.015625 C 7.34375 0.171875 6.722656 0.265625 6.078125 0.265625 C 5.304688 0.265625 4.59375 0.113281 3.9375 -0.1875 C 3.289062 -0.488281 2.722656 -0.898438 2.234375 -1.421875 C 1.753906 -1.941406 1.378906 -2.546875 1.109375 -3.234375 C 0.835938 -3.929688 0.703125 -4.675781 0.703125 -5.46875 C 0.703125 -6.257812 0.835938 -7.003906 1.109375 -7.703125 C 1.378906 -8.398438 1.753906 -9.003906 2.234375 -9.515625 C 2.722656 -10.035156 3.289062 -10.445312 3.9375 -10.75 C 4.59375 -11.050781 5.304688 -11.203125 6.078125 -11.203125 C 6.785156 -11.203125 7.429688 -11.09375 8.015625 -10.875 C 8.597656 -10.65625 9.082031 -10.300781 9.46875 -9.8125 L 9.78125 -10.890625 Z M 9.359375 -5.421875 C 9.359375 -5.992188 9.28125 -6.472656 9.125 -6.859375 C 8.96875 -7.253906 8.757812 -7.570312 8.5 -7.8125 C 8.25 -8.050781 7.953125 -8.222656 7.609375 -8.328125 C 7.265625 -8.441406 6.894531 -8.5 6.5 -8.5 C 6.101562 -8.5 5.734375 -8.414062 5.390625 -8.25 C 5.046875 -8.09375 4.742188 -7.878906 4.484375 -7.609375 C 4.222656 -7.335938 4.015625 -7.015625 3.859375 -6.640625 C 3.710938 -6.265625 3.640625 -5.875 3.640625 -5.46875 C 3.640625 -5.039062 3.710938 -4.644531 3.859375 -4.28125 C 4.015625 -3.914062 4.222656 -3.597656 4.484375 -3.328125 C 4.742188 -3.054688 5.046875 -2.835938 5.390625 -2.671875 C 5.734375 -2.515625 6.101562 -2.4375 6.5 -2.4375 C 7.289062 -2.4375 7.960938 -2.679688 8.515625 -3.171875 C 9.066406 -3.660156 9.347656 -4.410156 9.359375 -5.421875 Z M 9.359375 -5.421875 "/></g></g></g><g fill="#35323d" fill-opacity="1"><g transform="translate(136.070876, 22.074979)"><g><path d="M 6.65625 -10.890625 C 7.0625 -10.890625 7.515625 -10.832031 8.015625 -10.71875 C 8.515625 -10.601562 8.984375 -10.382812 9.421875 -10.0625 C 9.859375 -9.738281 10.226562 -9.289062 10.53125 -8.71875 C 10.832031 -8.144531 10.984375 -7.40625 10.984375 -6.5 L 10.984375 0 L 7.9375 0 L 7.9375 -6.390625 C 7.9375 -6.722656 7.878906 -7.003906 7.765625 -7.234375 C 7.648438 -7.472656 7.5 -7.660156 7.3125 -7.796875 C 7.132812 -7.941406 6.925781 -8.046875 6.6875 -8.109375 C 6.457031 -8.179688 6.226562 -8.21875 6 -8.21875 C 5.8125 -8.21875 5.601562 -8.179688 5.375 -8.109375 C 5.144531 -8.046875 4.929688 -7.941406 4.734375 -7.796875 C 4.535156 -7.648438 4.367188 -7.457031 4.234375 -7.21875 C 4.109375 -6.988281 4.046875 -6.710938 4.046875 -6.390625 L 4.046875 0 L 1.015625 0 L 1.015625 -10.890625 L 3.609375 -10.890625 L 4.046875 -10.0625 C 4.390625 -10.3125 4.78125 -10.507812 5.21875 -10.65625 C 5.664062 -10.8125 6.144531 -10.890625 6.65625 -10.890625 Z M 6.65625 -10.890625 "/></g></g></g><g fill="#35323d" fill-opacity="1"><g transform="translate(147.956805, 22.074979)"><g><path d="M 5.015625 -3.90625 C 5.015625 -3.394531 5.171875 -3 5.484375 -2.71875 C 5.796875 -2.445312 6.207031 -2.3125 6.71875 -2.3125 C 7.132812 -2.3125 7.546875 -2.390625 7.953125 -2.546875 L 7.953125 0 C 7.585938 0.113281 7.195312 0.210938 6.78125 0.296875 C 6.375 0.378906 5.96875 0.421875 5.5625 0.421875 C 5.09375 0.421875 4.644531 0.359375 4.21875 0.234375 C 3.789062 0.117188 3.410156 -0.078125 3.078125 -0.359375 C 2.742188 -0.648438 2.476562 -1.03125 2.28125 -1.5 C 2.082031 -1.976562 1.984375 -2.566406 1.984375 -3.265625 L 1.984375 -8.1875 L 0.421875 -8.1875 L 0.421875 -10.234375 L 1.984375 -10.890625 L 1.984375 -13.328125 L 5.015625 -13.328125 L 5.015625 -10.890625 L 7.953125 -10.890625 L 7.953125 -8.1875 L 5.015625 -8.1875 Z M 5.015625 -3.90625 "/></g></g></g></svg>