<svg xmlns="http://www.w3.org/2000/svg" xmlns:xlink="http://www.w3.org/1999/xlink" width="182" zoomAndPan="magnify" viewBox="0 0 136.5 30.000001" height="40" preserveAspectRatio="xMidYMid meet" version="1.0"><defs><filter x="0%" y="0%" width="100%" height="100%" id="01264c5091"><feColorMatrix values="0 0 0 0 1 0 0 0 0 1 0 0 0 0 1 0 0 0 1 0" color-interpolation-filters="sRGB"/></filter><g/><clipPath id="85bf29fca9"><path d="M 16 3.546875 L 24 3.546875 L 24 22 L 16 22 Z M 16 3.546875 " clip-rule="nonzero"/></clipPath><mask id="5e16e15926"><g filter="url(#01264c5091)"><rect x="-13.65" width="163.8" fill="#000000" y="-3" height="36.000001" fill-opacity="0.85"/></g></mask><clipPath id="505f12a445"><path d="M 0.59375 0.546875 L 7.792969 0.546875 L 7.792969 18.832031 L 0.59375 18.832031 Z M 0.59375 0.546875 " clip-rule="nonzero"/></clipPath><clipPath id="12d52421ad"><rect x="0" width="8" y="0" height="19"/></clipPath><mask id="cc014690b8"><g filter="url(#01264c5091)"><rect x="-13.65" width="163.8" fill="#000000" y="-3" height="36.000001" fill-opacity="0.85"/></g></mask><clipPath id="3274697c74"><path d="M 0.0742188 0.824219 L 13.316406 0.824219 L 13.316406 13.832031 L 0.0742188 13.832031 Z M 0.0742188 0.824219 " clip-rule="nonzero"/></clipPath><clipPath id="ff8c6c5557"><rect x="0" width="14" y="0" height="14"/></clipPath><clipPath id="8e24e3ff82"><path d="M 20 18 L 38.234375 18 L 38.234375 25.320312 L 20 25.320312 Z M 20 18 " clip-rule="nonzero"/></clipPath><mask id="88b74cf0af"><g filter="url(#01264c5091)"><rect x="-13.65" width="163.8" fill="#000000" y="-3" height="36.000001" fill-opacity="0.85"/></g></mask><clipPath id="cfc406dc0b"><path d="M 0.0742188 0.117188 L 18.234375 0.117188 L 18.234375 7.316406 L 0.0742188 7.316406 Z M 0.0742188 0.117188 " clip-rule="nonzero"/></clipPath><clipPath id="355a93e684"><rect x="0" width="19" y="0" height="8"/></clipPath><clipPath id="cfac6e5794"><path d="M 1.960938 18 L 21 18 L 21 25.320312 L 1.960938 25.320312 Z M 1.960938 18 " clip-rule="nonzero"/></clipPath><mask id="6131a9ed90"><g filter="url(#01264c5091)"><rect x="-13.65" width="163.8" fill="#000000" y="-3" height="36.000001" fill-opacity="0.85"/></g></mask><clipPath id="5abae05e40"><path d="M 0.960938 0.117188 L 19.308594 0.117188 L 19.308594 7.316406 L 0.960938 7.316406 Z M 0.960938 0.117188 " clip-rule="nonzero"/></clipPath><clipPath id="5275631934"><rect x="0" width="20" y="0" height="8"/></clipPath><mask id="3208c4e1ef"><g filter="url(#01264c5091)"><rect x="-13.65" width="163.8" fill="#000000" y="-3" height="36.000001" fill-opacity="0.85"/></g></mask><clipPath id="c7280a75d3"><path d="M 0.0703125 0.824219 L 13.308594 0.824219 L 13.308594 13.832031 L 0.0703125 13.832031 Z M 0.0703125 0.824219 " clip-rule="nonzero"/></clipPath><clipPath id="c034425843"><rect x="0" width="14" y="0" height="14"/></clipPath></defs><g clip-path="url(#85bf29fca9)"><g mask="url(#5e16e15926)"><g transform="matrix(1, 0, 0, 1, 16, 3)"><g clip-path="url(#12d52421ad)"><g clip-path="url(#505f12a445)"><path fill="#97c63a" d="M 4.191406 0.546875 C 2.042969 2.976562 0.738281 6.164062 0.738281 9.660156 C 0.738281 13.15625 2.042969 16.34375 4.191406 18.773438 C 6.335938 16.347656 7.640625 13.15625 7.640625 9.660156 C 7.640625 6.164062 6.335938 2.976562 4.191406 0.546875 " fill-opacity="1" fill-rule="evenodd"/></g></g></g></g></g><g mask="url(#cc014690b8)"><g transform="matrix(1, 0, 0, 1, 20, 8)"><g clip-path="url(#ff8c6c5557)"><g clip-path="url(#3274697c74)"><path fill="#74992e" d="M 13.074219 0.886719 C 9.84375 1.085938 6.664062 2.417969 4.195312 4.890625 C 1.722656 7.359375 0.386719 10.539062 0.191406 13.773438 C 3.421875 13.574219 6.601562 12.238281 9.074219 9.769531 C 11.542969 7.296875 12.878906 4.121094 13.074219 0.886719 " fill-opacity="1" fill-rule="evenodd"/></g></g></g></g><g clip-path="url(#8e24e3ff82)"><g mask="url(#88b74cf0af)"><g transform="matrix(1, 0, 0, 1, 20, 18)"><g clip-path="url(#355a93e684)"><g clip-path="url(#cfc406dc0b)"><path fill="#386910" d="M 18.414062 3.773438 C 15.988281 1.625 12.796875 0.324219 9.300781 0.324219 C 5.808594 0.324219 2.617188 1.625 0.191406 3.773438 C 2.617188 5.917969 5.808594 7.222656 9.300781 7.222656 C 12.796875 7.222656 15.988281 5.917969 18.414062 3.773438 " fill-opacity="1" fill-rule="evenodd"/></g></g></g></g></g><g clip-path="url(#cfac6e5794)"><g mask="url(#6131a9ed90)"><g transform="matrix(1, 0, 0, 1, 1, 18)"><g clip-path="url(#5275631934)"><g clip-path="url(#5abae05e40)"><path fill="#386910" d="M 0.964844 3.773438 C 3.390625 5.917969 6.582031 7.222656 10.078125 7.222656 C 13.574219 7.222656 16.761719 5.917969 19.191406 3.773438 C 16.761719 1.625 13.574219 0.324219 10.078125 0.324219 C 6.582031 0.324219 3.390625 1.625 0.964844 3.773438 " fill-opacity="1" fill-rule="evenodd"/></g></g></g></g></g><g mask="url(#3208c4e1ef)"><g transform="matrix(1, 0, 0, 1, 7, 8)"><g clip-path="url(#c034425843)"><g clip-path="url(#c7280a75d3)"><path fill="#74992e" d="M 0.304688 0.886719 C 0.5 4.121094 1.835938 7.296875 4.308594 9.769531 C 6.777344 12.238281 9.957031 13.574219 13.191406 13.773438 C 12.992188 10.539062 11.65625 7.359375 9.1875 4.890625 C 6.714844 2.417969 3.539062 1.082031 0.304688 0.886719 " fill-opacity="1" fill-rule="evenodd"/></g></g></g></g><g fill="#35323d" fill-opacity="1"><g transform="translate(42.556739, 22.074979)"><g><path d="M 4.28125 0 L 1.25 0 L 1.25 -10.890625 L 4.28125 -10.890625 Z M 2.765625 -12.390625 C 2.296875 -12.390625 1.898438 -12.550781 1.578125 -12.875 C 1.253906 -13.195312 1.09375 -13.59375 1.09375 -14.0625 C 1.09375 -14.53125 1.253906 -14.925781 1.578125 -15.25 C 1.898438 -15.582031 2.296875 -15.75 2.765625 -15.75 C 3.234375 -15.75 3.628906 -15.582031 3.953125 -15.25 C 4.273438 -14.925781 4.4375 -14.53125 4.4375 -14.0625 C 4.4375 -13.59375 4.273438 -13.195312 3.953125 -12.875 C 3.628906 -12.550781 3.234375 -12.390625 2.765625 -12.390625 Z M 2.765625 -12.390625 "/></g></g></g><g fill="#35323d" fill-opacity="1"><g transform="translate(48.115217, 22.074979)"><g><path d="M 7.90625 -5.71875 C 8.707031 -5.144531 9.109375 -4.328125 9.109375 -3.265625 C 9.109375 -2.785156 8.992188 -2.332031 8.765625 -1.90625 C 8.546875 -1.488281 8.238281 -1.117188 7.84375 -0.796875 C 7.445312 -0.472656 6.984375 -0.21875 6.453125 -0.03125 C 5.929688 0.144531 5.367188 0.234375 4.765625 0.234375 C 4.316406 0.234375 3.875 0.175781 3.4375 0.0625 C 3.007812 -0.0507812 2.609375 -0.207031 2.234375 -0.40625 C 1.867188 -0.613281 1.550781 -0.859375 1.28125 -1.140625 C 1.007812 -1.429688 0.8125 -1.753906 0.6875 -2.109375 C 1.019531 -2.265625 1.390625 -2.441406 1.796875 -2.640625 C 2.210938 -2.835938 2.570312 -3.019531 2.875 -3.1875 C 3.007812 -2.96875 3.210938 -2.765625 3.484375 -2.578125 C 3.765625 -2.398438 4.148438 -2.3125 4.640625 -2.3125 C 5.128906 -2.3125 5.488281 -2.425781 5.71875 -2.65625 C 5.957031 -2.894531 6.078125 -3.113281 6.078125 -3.3125 C 6.078125 -3.457031 6 -3.59375 5.84375 -3.71875 C 5.6875 -3.84375 5.503906 -3.941406 5.296875 -4.015625 C 5.003906 -4.140625 4.757812 -4.203125 4.5625 -4.203125 C 4.375 -4.210938 4.15625 -4.253906 3.90625 -4.328125 C 3.113281 -4.515625 2.507812 -4.765625 2.09375 -5.078125 C 1.675781 -5.398438 1.375 -5.722656 1.1875 -6.046875 C 1 -6.367188 0.890625 -6.675781 0.859375 -6.96875 C 0.835938 -7.257812 0.828125 -7.492188 0.828125 -7.671875 C 0.828125 -8.140625 0.929688 -8.582031 1.140625 -9 C 1.347656 -9.425781 1.628906 -9.796875 1.984375 -10.109375 C 2.347656 -10.429688 2.765625 -10.6875 3.234375 -10.875 C 3.710938 -11.0625 4.222656 -11.15625 4.765625 -11.15625 C 5.222656 -11.15625 5.65625 -11.085938 6.0625 -10.953125 C 6.46875 -10.828125 6.835938 -10.644531 7.171875 -10.40625 C 7.515625 -10.175781 7.804688 -9.898438 8.046875 -9.578125 C 8.296875 -9.253906 8.476562 -8.894531 8.59375 -8.5 L 6.234375 -7.71875 C 6.148438 -7.976562 5.972656 -8.1875 5.703125 -8.34375 C 5.429688 -8.507812 5.140625 -8.59375 4.828125 -8.59375 C 4.523438 -8.59375 4.273438 -8.488281 4.078125 -8.28125 C 3.890625 -8.070312 3.796875 -7.867188 3.796875 -7.671875 C 3.796875 -7.421875 3.882812 -7.222656 4.0625 -7.078125 C 4.25 -6.941406 4.453125 -6.84375 4.671875 -6.78125 C 4.835938 -6.757812 4.992188 -6.734375 5.140625 -6.703125 C 5.296875 -6.679688 5.453125 -6.660156 5.609375 -6.640625 C 6.117188 -6.515625 6.554688 -6.378906 6.921875 -6.234375 C 7.296875 -6.085938 7.625 -5.914062 7.90625 -5.71875 Z M 7.90625 -5.71875 "/></g></g></g><g fill="#35323d" fill-opacity="1"><g transform="translate(57.848061, 22.074979)"><g><path d="M 7.046875 -11.203125 C 7.765625 -11.203125 8.4375 -11.050781 9.0625 -10.75 C 9.6875 -10.445312 10.222656 -10.035156 10.671875 -9.515625 C 11.128906 -9.003906 11.484375 -8.398438 11.734375 -7.703125 C 11.992188 -7.003906 12.125 -6.257812 12.125 -5.46875 L 12.125 0 L 9.15625 0 L 9.15625 -2 C 9.15625 -2.550781 9.160156 -3.125 9.171875 -3.71875 C 9.179688 -4.3125 9.1875 -4.820312 9.1875 -5.25 C 9.1875 -5.65625 9.117188 -6.054688 8.984375 -6.453125 C 8.847656 -6.847656 8.660156 -7.195312 8.421875 -7.5 C 8.191406 -7.800781 7.921875 -8.039062 7.609375 -8.21875 C 7.296875 -8.40625 6.960938 -8.5 6.609375 -8.5 C 6.273438 -8.5 5.953125 -8.4375 5.640625 -8.3125 C 5.335938 -8.1875 5.066406 -8.003906 4.828125 -7.765625 C 4.597656 -7.523438 4.410156 -7.222656 4.265625 -6.859375 C 4.128906 -6.492188 4.0625 -6.0625 4.0625 -5.5625 L 4.0625 0 L 1.015625 0 L 1.015625 -16.03125 L 4.0625 -16.03125 L 4.0625 -10.0625 C 4.445312 -10.425781 4.882812 -10.707031 5.375 -10.90625 C 5.863281 -11.101562 6.421875 -11.203125 7.046875 -11.203125 Z M 7.046875 -11.203125 "/></g></g></g><g fill="#35323d" fill-opacity="1"><g transform="translate(70.349157, 22.074979)"><g><path d="M 4.28125 0 L 1.25 0 L 1.25 -10.890625 L 4.28125 -10.890625 Z M 2.765625 -12.390625 C 2.296875 -12.390625 1.898438 -12.550781 1.578125 -12.875 C 1.253906 -13.195312 1.09375 -13.59375 1.09375 -14.0625 C 1.09375 -14.53125 1.253906 -14.925781 1.578125 -15.25 C 1.898438 -15.582031 2.296875 -15.75 2.765625 -15.75 C 3.234375 -15.75 3.628906 -15.582031 3.953125 -15.25 C 4.273438 -14.925781 4.4375 -14.53125 4.4375 -14.0625 C 4.4375 -13.59375 4.273438 -13.195312 3.953125 -12.875 C 3.628906 -12.550781 3.234375 -12.390625 2.765625 -12.390625 Z M 2.765625 -12.390625 "/></g></g></g><g fill="#35323d" fill-opacity="1"><g transform="translate(75.907635, 22.074979)"><g><path d="M 7.296875 -11.203125 C 8.066406 -11.203125 8.78125 -11.050781 9.4375 -10.75 C 10.101562 -10.445312 10.671875 -10.035156 11.140625 -9.515625 C 11.617188 -9.003906 11.992188 -8.398438 12.265625 -7.703125 C 12.535156 -7.003906 12.671875 -6.257812 12.671875 -5.46875 C 12.671875 -4.675781 12.535156 -3.929688 12.265625 -3.234375 C 11.992188 -2.546875 11.617188 -1.941406 11.140625 -1.421875 C 10.671875 -0.898438 10.101562 -0.488281 9.4375 -0.1875 C 8.78125 0.113281 8.066406 0.265625 7.296875 0.265625 C 6.660156 0.265625 6.039062 0.148438 5.4375 -0.078125 C 4.84375 -0.304688 4.378906 -0.59375 4.046875 -0.9375 L 4.046875 4.34375 L 1.015625 4.34375 L 1.015625 -10.890625 L 3.609375 -10.890625 L 4.046875 -10.15625 C 4.460938 -10.53125 4.9375 -10.796875 5.46875 -10.953125 C 6 -11.117188 6.609375 -11.203125 7.296875 -11.203125 Z M 6.890625 -2.4375 C 7.285156 -2.4375 7.65625 -2.515625 8 -2.671875 C 8.351562 -2.835938 8.65625 -3.054688 8.90625 -3.328125 C 9.164062 -3.597656 9.367188 -3.914062 9.515625 -4.28125 C 9.671875 -4.644531 9.75 -5.039062 9.75 -5.46875 C 9.75 -5.875 9.671875 -6.265625 9.515625 -6.640625 C 9.367188 -7.015625 9.164062 -7.335938 8.90625 -7.609375 C 8.65625 -7.878906 8.351562 -8.09375 8 -8.25 C 7.65625 -8.414062 7.285156 -8.5 6.890625 -8.5 C 6.503906 -8.5 6.132812 -8.441406 5.78125 -8.328125 C 5.4375 -8.222656 5.132812 -8.050781 4.875 -7.8125 C 4.625 -7.570312 4.425781 -7.253906 4.28125 -6.859375 C 4.132812 -6.472656 4.0625 -6.007812 4.0625 -5.46875 C 4.0625 -4.957031 4.132812 -4.515625 4.28125 -4.140625 C 4.425781 -3.765625 4.625 -3.445312 4.875 -3.1875 C 5.132812 -2.9375 5.4375 -2.75 5.78125 -2.625 C 6.132812 -2.5 6.503906 -2.4375 6.890625 -2.4375 Z M 6.890625 -2.4375 "/></g></g></g><g fill="#35323d" fill-opacity="1"><g transform="translate(88.892079, 22.074979)"><g><path d="M 7.296875 -11.203125 C 8.066406 -11.203125 8.78125 -11.050781 9.4375 -10.75 C 10.101562 -10.445312 10.671875 -10.035156 11.140625 -9.515625 C 11.617188 -9.003906 11.992188 -8.398438 12.265625 -7.703125 C 12.535156 -7.003906 12.671875 -6.257812 12.671875 -5.46875 C 12.671875 -4.675781 12.535156 -3.929688 12.265625 -3.234375 C 11.992188 -2.546875 11.617188 -1.941406 11.140625 -1.421875 C 10.671875 -0.898438 10.101562 -0.488281 9.4375 -0.1875 C 8.78125 0.113281 8.066406 0.265625 7.296875 0.265625 C 6.660156 0.265625 6.039062 0.148438 5.4375 -0.078125 C 4.84375 -0.304688 4.378906 -0.59375 4.046875 -0.9375 L 4.046875 4.34375 L 1.015625 4.34375 L 1.015625 -10.890625 L 3.609375 -10.890625 L 4.046875 -10.15625 C 4.460938 -10.53125 4.9375 -10.796875 5.46875 -10.953125 C 6 -11.117188 6.609375 -11.203125 7.296875 -11.203125 Z M 6.890625 -2.4375 C 7.285156 -2.4375 7.65625 -2.515625 8 -2.671875 C 8.351562 -2.835938 8.65625 -3.054688 8.90625 -3.328125 C 9.164062 -3.597656 9.367188 -3.914062 9.515625 -4.28125 C 9.671875 -4.644531 9.75 -5.039062 9.75 -5.46875 C 9.75 -5.875 9.671875 -6.265625 9.515625 -6.640625 C 9.367188 -7.015625 9.164062 -7.335938 8.90625 -7.609375 C 8.65625 -7.878906 8.351562 -8.09375 8 -8.25 C 7.65625 -8.414062 7.285156 -8.5 6.890625 -8.5 C 6.503906 -8.5 6.132812 -8.441406 5.78125 -8.328125 C 5.4375 -8.222656 5.132812 -8.050781 4.875 -7.8125 C 4.625 -7.570312 4.425781 -7.253906 4.28125 -6.859375 C 4.132812 -6.472656 4.0625 -6.007812 4.0625 -5.46875 C 4.0625 -4.957031 4.132812 -4.515625 4.28125 -4.140625 C 4.425781 -3.765625 4.625 -3.445312 4.875 -3.1875 C 5.132812 -2.9375 5.4375 -2.75 5.78125 -2.625 C 6.132812 -2.5 6.503906 -2.4375 6.890625 -2.4375 Z M 6.890625 -2.4375 "/></g></g></g><g fill="#35323d" fill-opacity="1"><g transform="translate(101.876523, 22.074979)"><g><path d="M 4.28125 0 L 1.25 0 L 1.25 -10.890625 L 4.28125 -10.890625 Z M 2.765625 -12.390625 C 2.296875 -12.390625 1.898438 -12.550781 1.578125 -12.875 C 1.253906 -13.195312 1.09375 -13.59375 1.09375 -14.0625 C 1.09375 -14.53125 1.253906 -14.925781 1.578125 -15.25 C 1.898438 -15.582031 2.296875 -15.75 2.765625 -15.75 C 3.234375 -15.75 3.628906 -15.582031 3.953125 -15.25 C 4.273438 -14.925781 4.4375 -14.53125 4.4375 -14.0625 C 4.4375 -13.59375 4.273438 -13.195312 3.953125 -12.875 C 3.628906 -12.550781 3.234375 -12.390625 2.765625 -12.390625 Z M 2.765625 -12.390625 "/></g></g></g><g fill="#35323d" fill-opacity="1"><g transform="translate(107.435001, 22.074979)"><g><path d="M 6.65625 -10.890625 C 7.0625 -10.890625 7.515625 -10.832031 8.015625 -10.71875 C 8.515625 -10.601562 8.984375 -10.382812 9.421875 -10.0625 C 9.859375 -9.738281 10.226562 -9.289062 10.53125 -8.71875 C 10.832031 -8.144531 10.984375 -7.40625 10.984375 -6.5 L 10.984375 0 L 7.9375 0 L 7.9375 -6.390625 C 7.9375 -6.722656 7.878906 -7.003906 7.765625 -7.234375 C 7.648438 -7.472656 7.5 -7.660156 7.3125 -7.796875 C 7.132812 -7.941406 6.925781 -8.046875 6.6875 -8.109375 C 6.457031 -8.179688 6.226562 -8.21875 6 -8.21875 C 5.8125 -8.21875 5.601562 -8.179688 5.375 -8.109375 C 5.144531 -8.046875 4.929688 -7.941406 4.734375 -7.796875 C 4.535156 -7.648438 4.367188 -7.457031 4.234375 -7.21875 C 4.109375 -6.988281 4.046875 -6.710938 4.046875 -6.390625 L 4.046875 0 L 1.015625 0 L 1.015625 -10.890625 L 3.609375 -10.890625 L 4.046875 -10.0625 C 4.390625 -10.3125 4.78125 -10.507812 5.21875 -10.65625 C 5.664062 -10.8125 6.144531 -10.890625 6.65625 -10.890625 Z M 6.65625 -10.890625 "/></g></g></g><g fill="#35323d" fill-opacity="1"><g transform="translate(119.32093, 22.074979)"><g><path d="M 9.53125 -10.890625 L 12.125 -10.890625 L 12.125 -3.6875 C 12.125 -2.851562 12.113281 -2.109375 12.09375 -1.453125 C 12.070312 -0.804688 12.015625 -0.222656 11.921875 0.296875 C 11.835938 0.816406 11.695312 1.28125 11.5 1.6875 C 11.300781 2.101562 11.023438 2.484375 10.671875 2.828125 C 10.023438 3.460938 9.300781 3.894531 8.5 4.125 C 7.707031 4.363281 6.875 4.484375 6 4.484375 C 5.25 4.484375 4.546875 4.394531 3.890625 4.21875 C 3.234375 4.039062 2.640625 3.800781 2.109375 3.5 L 2.109375 0.65625 C 2.242188 0.863281 2.429688 1.046875 2.671875 1.203125 C 2.910156 1.367188 3.1875 1.507812 3.5 1.625 C 3.8125 1.738281 4.144531 1.828125 4.5 1.890625 C 4.863281 1.960938 5.234375 2 5.609375 2 C 6.085938 2 6.535156 1.9375 6.953125 1.8125 C 7.378906 1.6875 7.75 1.484375 8.0625 1.203125 C 8.382812 0.929688 8.632812 0.582031 8.8125 0.15625 C 9 -0.257812 9.09375 -0.765625 9.09375 -1.359375 L 9.09375 -1.578125 C 8.664062 -1.203125 8.171875 -0.898438 7.609375 -0.671875 C 7.054688 -0.441406 6.453125 -0.328125 5.796875 -0.328125 C 5.066406 -0.328125 4.390625 -0.46875 3.765625 -0.75 C 3.140625 -1.039062 2.597656 -1.429688 2.140625 -1.921875 C 1.691406 -2.410156 1.335938 -2.988281 1.078125 -3.65625 C 0.828125 -4.320312 0.703125 -5.03125 0.703125 -5.78125 C 0.703125 -6.519531 0.828125 -7.21875 1.078125 -7.875 C 1.335938 -8.539062 1.691406 -9.117188 2.140625 -9.609375 C 2.597656 -10.097656 3.140625 -10.484375 3.765625 -10.765625 C 4.390625 -11.054688 5.066406 -11.203125 5.796875 -11.203125 C 6.484375 -11.203125 7.101562 -11.109375 7.65625 -10.921875 C 8.21875 -10.742188 8.695312 -10.457031 9.09375 -10.0625 Z M 6.421875 -3.03125 C 6.890625 -3.03125 7.289062 -3.113281 7.625 -3.28125 C 7.957031 -3.445312 8.234375 -3.660156 8.453125 -3.921875 C 8.671875 -4.191406 8.832031 -4.488281 8.9375 -4.8125 C 9.039062 -5.132812 9.09375 -5.445312 9.09375 -5.75 C 9.09375 -6.09375 9.035156 -6.425781 8.921875 -6.75 C 8.816406 -7.082031 8.65625 -7.375 8.4375 -7.625 C 8.21875 -7.882812 7.9375 -8.09375 7.59375 -8.25 C 7.257812 -8.414062 6.867188 -8.5 6.421875 -8.5 C 6.035156 -8.5 5.679688 -8.425781 5.359375 -8.28125 C 5.035156 -8.132812 4.753906 -7.9375 4.515625 -7.6875 C 4.273438 -7.4375 4.082031 -7.144531 3.9375 -6.8125 C 3.800781 -6.488281 3.734375 -6.132812 3.734375 -5.75 C 3.734375 -5.375 3.800781 -5.019531 3.9375 -4.6875 C 4.082031 -4.363281 4.273438 -4.078125 4.515625 -3.828125 C 4.753906 -3.578125 5.035156 -3.378906 5.359375 -3.234375 C 5.679688 -3.097656 6.035156 -3.03125 6.421875 -3.03125 Z M 6.421875 -3.03125 "/></g></g></g></svg>