<svg xmlns="http://www.w3.org/2000/svg" xmlns:xlink="http://www.w3.org/1999/xlink" width="147" zoomAndPan="magnify" viewBox="0 0 110.25 30.000001" height="40" preserveAspectRatio="xMidYMid meet" version="1.0"><defs><filter x="0%" y="0%" width="100%" height="100%" id="5736641d09"><feColorMatrix values="0 0 0 0 1 0 0 0 0 1 0 0 0 0 1 0 0 0 1 0" color-interpolation-filters="sRGB"/></filter><g/><clipPath id="d2233d5c48"><path d="M 16 3.230469 L 24 3.230469 L 24 22 L 16 22 Z M 16 3.230469 " clip-rule="nonzero"/></clipPath><mask id="0c5d5b462d"><g filter="url(#5736641d09)"><rect x="-11.025" width="132.3" fill="#000000" y="-3" height="36.000001" fill-opacity="0.85"/></g></mask><clipPath id="d902dfa435"><path d="M 0.046875 0.230469 L 7.246094 0.230469 L 7.246094 18.601562 L 0.046875 18.601562 Z M 0.046875 0.230469 " clip-rule="nonzero"/></clipPath><clipPath id="34cf3af7ae"><rect x="0" width="8" y="0" height="19"/></clipPath><mask id="bff4665e7c"><g filter="url(#5736641d09)"><rect x="-11.025" width="132.3" fill="#000000" y="-3" height="36.000001" fill-opacity="0.85"/></g></mask><clipPath id="9a1646d3cb"><path d="M 0.53125 0.359375 L 13.769531 0.359375 L 13.769531 13.601562 L 0.53125 13.601562 Z M 0.53125 0.359375 " clip-rule="nonzero"/></clipPath><clipPath id="007d5d0f60"><rect x="0" width="14" y="0" height="14"/></clipPath><clipPath id="5c9f523463"><path d="M 19 17 L 37.6875 17 L 37.6875 25.003906 L 19 25.003906 Z M 19 17 " clip-rule="nonzero"/></clipPath><mask id="41f3944226"><g filter="url(#5736641d09)"><rect x="-11.025" width="132.3" fill="#000000" y="-3" height="36.000001" fill-opacity="0.85"/></g></mask><clipPath id="65f46ffd32"><path d="M 0.53125 0.882812 L 18.6875 0.882812 L 18.6875 8 L 0.53125 8 Z M 0.53125 0.882812 " clip-rule="nonzero"/></clipPath><clipPath id="f4fe280619"><rect x="0" width="19" y="0" height="9"/></clipPath><clipPath id="a23f83cd5c"><path d="M 1.414062 17 L 20 17 L 20 25.003906 L 1.414062 25.003906 Z M 1.414062 17 " clip-rule="nonzero"/></clipPath><mask id="e9635515b9"><g filter="url(#5736641d09)"><rect x="-11.025" width="132.3" fill="#000000" y="-3" height="36.000001" fill-opacity="0.85"/></g></mask><clipPath id="a0742427bc"><path d="M 0.414062 0.882812 L 18.765625 0.882812 L 18.765625 8 L 0.414062 8 Z M 0.414062 0.882812 " clip-rule="nonzero"/></clipPath><clipPath id="1e8a827d11"><rect x="0" width="19" y="0" height="9"/></clipPath><mask id="ea8313a2a5"><g filter="url(#5736641d09)"><rect x="-11.025" width="132.3" fill="#000000" y="-3" height="36.000001" fill-opacity="0.85"/></g></mask><clipPath id="20f85d45c6"><path d="M 0.523438 0.359375 L 13.765625 0.359375 L 13.765625 13.601562 L 0.523438 13.601562 Z M 0.523438 0.359375 " clip-rule="nonzero"/></clipPath><clipPath id="ef8ffbf12b"><rect x="0" width="14" y="0" height="14"/></clipPath></defs><g clip-path="url(#d2233d5c48)"><g mask="url(#0c5d5b462d)"><g transform="matrix(1, 0, 0, 1, 16, 3)"><g clip-path="url(#34cf3af7ae)"><g clip-path="url(#d902dfa435)"><path fill="#97c63a" d="M 3.617188 0.234375 C 1.472656 2.660156 0.171875 5.84375 0.171875 9.335938 C 0.171875 12.828125 1.472656 16.015625 3.617188 18.4375 C 5.761719 16.015625 7.0625 12.828125 7.0625 9.335938 C 7.0625 5.84375 5.761719 2.660156 3.617188 0.234375 " fill-opacity="1" fill-rule="evenodd"/></g></g></g></g></g><g mask="url(#bff4665e7c)"><g transform="matrix(1, 0, 0, 1, 19, 8)"><g clip-path="url(#007d5d0f60)"><g clip-path="url(#9a1646d3cb)"><path fill="#74992e" d="M 13.488281 0.566406 C 10.257812 0.765625 7.085938 2.097656 4.617188 4.566406 C 2.148438 7.035156 0.816406 10.207031 0.617188 13.4375 C 3.847656 13.242188 7.023438 11.910156 9.492188 9.441406 C 11.960938 6.972656 13.292969 3.796875 13.488281 0.566406 " fill-opacity="1" fill-rule="evenodd"/></g></g></g></g><g clip-path="url(#5c9f523463)"><g mask="url(#41f3944226)"><g transform="matrix(1, 0, 0, 1, 19, 17)"><g clip-path="url(#f4fe280619)"><g clip-path="url(#65f46ffd32)"><path fill="#386910" d="M 18.820312 4.4375 C 16.398438 2.292969 13.210938 0.992188 9.71875 0.992188 C 6.230469 0.992188 3.042969 2.292969 0.617188 4.4375 C 3.042969 6.582031 6.230469 7.886719 9.71875 7.886719 C 13.210938 7.886719 16.398438 6.582031 18.820312 4.4375 " fill-opacity="1" fill-rule="evenodd"/></g></g></g></g></g><g clip-path="url(#a23f83cd5c)"><g mask="url(#e9635515b9)"><g transform="matrix(1, 0, 0, 1, 1, 17)"><g clip-path="url(#1e8a827d11)"><g clip-path="url(#a0742427bc)"><path fill="#386910" d="M 0.414062 4.4375 C 2.835938 6.582031 6.023438 7.886719 9.515625 7.886719 C 13.003906 7.886719 16.191406 6.582031 18.617188 4.4375 C 16.191406 2.292969 13.003906 0.992188 9.515625 0.992188 C 6.023438 0.992188 2.835938 2.292969 0.414062 4.4375 " fill-opacity="1" fill-rule="evenodd"/></g></g></g></g></g><g mask="url(#ea8313a2a5)"><g transform="matrix(1, 0, 0, 1, 6, 8)"><g clip-path="url(#ef8ffbf12b)"><g clip-path="url(#20f85d45c6)"><path fill="#74992e" d="M 0.746094 0.566406 C 0.941406 3.796875 2.273438 6.972656 4.742188 9.441406 C 7.210938 11.90625 10.386719 13.242188 13.617188 13.4375 C 13.417969 10.207031 12.085938 7.035156 9.617188 4.566406 C 7.148438 2.097656 3.976562 0.765625 0.746094 0.566406 " fill-opacity="1" fill-rule="evenodd"/></g></g></g></g><g fill="#35323d" fill-opacity="1"><g transform="translate(41.814385, 21.735495)"><g><path d="M 4.28125 0 L 1.25 0 L 1.25 -10.875 L 4.28125 -10.875 Z M 2.765625 -12.375 C 2.296875 -12.375 1.898438 -12.535156 1.578125 -12.859375 C 1.253906 -13.179688 1.09375 -13.578125 1.09375 -14.046875 C 1.09375 -14.503906 1.253906 -14.898438 1.578125 -15.234375 C 1.898438 -15.566406 2.296875 -15.734375 2.765625 -15.734375 C 3.234375 -15.734375 3.628906 -15.566406 3.953125 -15.234375 C 4.273438 -14.898438 4.4375 -14.503906 4.4375 -14.046875 C 4.4375 -13.578125 4.273438 -13.179688 3.953125 -12.859375 C 3.628906 -12.535156 3.234375 -12.375 2.765625 -12.375 Z M 2.765625 -12.375 "/></g></g></g><g fill="#35323d" fill-opacity="1"><g transform="translate(47.365311, 21.735495)"><g><path d="M 7.875 -10.875 L 10.90625 -10.875 L 10.90625 0 L 8.3125 0 L 7.875 -0.828125 C 7.519531 -0.578125 7.117188 -0.375 6.671875 -0.21875 C 6.234375 -0.0703125 5.757812 0 5.25 0 C 4.851562 0 4.398438 -0.0546875 3.890625 -0.171875 C 3.390625 -0.285156 2.921875 -0.503906 2.484375 -0.828125 C 2.046875 -1.148438 1.675781 -1.597656 1.375 -2.171875 C 1.070312 -2.742188 0.921875 -3.484375 0.921875 -4.390625 L 0.921875 -10.875 L 3.96875 -10.875 L 3.96875 -4.5 C 3.96875 -4.164062 4.019531 -3.878906 4.125 -3.640625 C 4.238281 -3.410156 4.382812 -3.222656 4.5625 -3.078125 C 4.75 -2.941406 4.957031 -2.835938 5.1875 -2.765625 C 5.425781 -2.703125 5.671875 -2.671875 5.921875 -2.671875 C 6.109375 -2.671875 6.316406 -2.703125 6.546875 -2.765625 C 6.773438 -2.835938 6.988281 -2.945312 7.1875 -3.09375 C 7.382812 -3.238281 7.546875 -3.425781 7.671875 -3.65625 C 7.804688 -3.894531 7.875 -4.175781 7.875 -4.5 Z M 7.875 -10.875 "/></g></g></g><g fill="#35323d" fill-opacity="1"><g transform="translate(59.278976, 21.735495)"><g><path d="M 13.09375 -10.875 C 13.488281 -10.875 13.910156 -10.804688 14.359375 -10.671875 C 14.816406 -10.546875 15.238281 -10.316406 15.625 -9.984375 C 16.019531 -9.648438 16.335938 -9.1875 16.578125 -8.59375 C 16.828125 -8.007812 16.953125 -7.265625 16.953125 -6.359375 L 16.953125 0 L 13.9375 0 L 13.9375 -5.8125 C 13.9375 -6.25 13.882812 -6.617188 13.78125 -6.921875 C 13.6875 -7.234375 13.554688 -7.484375 13.390625 -7.671875 C 13.234375 -7.867188 13.050781 -8.003906 12.84375 -8.078125 C 12.632812 -8.160156 12.421875 -8.203125 12.203125 -8.203125 C 11.992188 -8.203125 11.785156 -8.164062 11.578125 -8.09375 C 11.378906 -8.019531 11.195312 -7.894531 11.03125 -7.71875 C 10.875 -7.539062 10.75 -7.296875 10.65625 -6.984375 C 10.5625 -6.679688 10.515625 -6.296875 10.515625 -5.828125 L 10.515625 0 L 7.484375 0 L 7.484375 -5.8125 C 7.484375 -6.707031 7.328125 -7.328125 7.015625 -7.671875 C 6.710938 -8.023438 6.269531 -8.203125 5.6875 -8.203125 C 5.257812 -8.203125 4.875 -8.003906 4.53125 -7.609375 C 4.195312 -7.210938 4.03125 -6.597656 4.03125 -5.765625 L 4.03125 0 L 1.015625 0 L 1.015625 -10.875 L 3.59375 -10.875 L 4.03125 -9.875 C 4.375 -10.195312 4.765625 -10.441406 5.203125 -10.609375 C 5.648438 -10.785156 6.128906 -10.875 6.640625 -10.875 C 6.910156 -10.875 7.191406 -10.847656 7.484375 -10.796875 C 7.773438 -10.753906 8.054688 -10.664062 8.328125 -10.53125 C 8.609375 -10.394531 8.875 -10.222656 9.125 -10.015625 C 9.382812 -9.804688 9.617188 -9.539062 9.828125 -9.21875 C 10.003906 -9.488281 10.21875 -9.726562 10.46875 -9.9375 C 10.71875 -10.15625 10.988281 -10.332031 11.28125 -10.46875 C 11.570312 -10.613281 11.875 -10.71875 12.1875 -10.78125 C 12.5 -10.84375 12.800781 -10.875 13.09375 -10.875 Z M 13.09375 -10.875 "/></g></g></g><g fill="#35323d" fill-opacity="1"><g transform="translate(77.182373, 21.735495)"><g><path d="M 7.015625 -6.359375 L 11.609375 0 L 7.984375 0 L 5.109375 -4.34375 L 4.03125 -3.1875 L 4.03125 0 L 1.015625 0 L 1.015625 -16.015625 L 4.03125 -16.015625 L 4.03125 -7.125 L 7.5625 -10.875 L 11.25 -10.875 Z M 7.015625 -6.359375 "/></g></g></g><g fill="#35323d" fill-opacity="1"><g transform="translate(88.942455, 21.735495)"><g><path d="M 13.09375 -10.875 C 13.488281 -10.875 13.910156 -10.804688 14.359375 -10.671875 C 14.816406 -10.546875 15.238281 -10.316406 15.625 -9.984375 C 16.019531 -9.648438 16.335938 -9.1875 16.578125 -8.59375 C 16.828125 -8.007812 16.953125 -7.265625 16.953125 -6.359375 L 16.953125 0 L 13.9375 0 L 13.9375 -5.8125 C 13.9375 -6.25 13.882812 -6.617188 13.78125 -6.921875 C 13.6875 -7.234375 13.554688 -7.484375 13.390625 -7.671875 C 13.234375 -7.867188 13.050781 -8.003906 12.84375 -8.078125 C 12.632812 -8.160156 12.421875 -8.203125 12.203125 -8.203125 C 11.992188 -8.203125 11.785156 -8.164062 11.578125 -8.09375 C 11.378906 -8.019531 11.195312 -7.894531 11.03125 -7.71875 C 10.875 -7.539062 10.75 -7.296875 10.65625 -6.984375 C 10.5625 -6.679688 10.515625 -6.296875 10.515625 -5.828125 L 10.515625 0 L 7.484375 0 L 7.484375 -5.8125 C 7.484375 -6.707031 7.328125 -7.328125 7.015625 -7.671875 C 6.710938 -8.023438 6.269531 -8.203125 5.6875 -8.203125 C 5.257812 -8.203125 4.875 -8.003906 4.53125 -7.609375 C 4.195312 -7.210938 4.03125 -6.597656 4.03125 -5.765625 L 4.03125 0 L 1.015625 0 L 1.015625 -10.875 L 3.59375 -10.875 L 4.03125 -9.875 C 4.375 -10.195312 4.765625 -10.441406 5.203125 -10.609375 C 5.648438 -10.785156 6.128906 -10.875 6.640625 -10.875 C 6.910156 -10.875 7.191406 -10.847656 7.484375 -10.796875 C 7.773438 -10.753906 8.054688 -10.664062 8.328125 -10.53125 C 8.609375 -10.394531 8.875 -10.222656 9.125 -10.015625 C 9.382812 -9.804688 9.617188 -9.539062 9.828125 -9.21875 C 10.003906 -9.488281 10.21875 -9.726562 10.46875 -9.9375 C 10.71875 -10.15625 10.988281 -10.332031 11.28125 -10.46875 C 11.570312 -10.613281 11.875 -10.71875 12.1875 -10.78125 C 12.5 -10.84375 12.800781 -10.875 13.09375 -10.875 Z M 13.09375 -10.875 "/></g></g></g></svg>