<svg xmlns="http://www.w3.org/2000/svg" xmlns:xlink="http://www.w3.org/1999/xlink" width="45" zoomAndPan="magnify" viewBox="0 0 33.75 33.749998" height="45" preserveAspectRatio="xMidYMid meet" version="1.0"><defs><clipPath id="4646fde4e0"><path d="M 0 0 L 33.5 0 L 33.5 33.5 L 0 33.5 Z M 0 0 " clip-rule="nonzero"/></clipPath><clipPath id="b95e31aac2"><path d="M 2.671875 3.289062 L 32.882812 3.289062 L 32.882812 33.5 L 2.671875 33.5 Z M 2.671875 3.289062 " clip-rule="nonzero"/></clipPath><clipPath id="228250e5ff"><path d="M 17.777344 3.289062 C 9.433594 3.289062 2.671875 10.050781 2.671875 18.394531 C 2.671875 26.738281 9.433594 33.5 17.777344 33.5 C 26.121094 33.5 32.882812 26.738281 32.882812 18.394531 C 32.882812 10.050781 26.121094 3.289062 17.777344 3.289062 Z M 17.777344 3.289062 " clip-rule="nonzero"/></clipPath><clipPath id="cdba8bab8f"><path d="M 0 0 L 30.207031 0 L 30.207031 30.207031 L 0 30.207031 Z M 0 0 " clip-rule="nonzero"/></clipPath><clipPath id="aa81f4dc95"><path d="M 15.105469 0 C 6.761719 0 0 6.761719 0 15.105469 C 0 23.445312 6.761719 30.207031 15.105469 30.207031 C 23.445312 30.207031 30.207031 23.445312 30.207031 15.105469 C 30.207031 6.761719 23.445312 0 15.105469 0 Z M 15.105469 0 " clip-rule="nonzero"/></clipPath><clipPath id="eba39e6f94"><path d="M 7 6.171875 L 23 6.171875 L 23 24.039062 L 7 24.039062 Z M 7 6.171875 " clip-rule="nonzero"/></clipPath></defs><g clip-path="url(#4646fde4e0)"><path fill="#ffffff" d="M 0 0 L 33.5 0 L 33.5 33.5 L 0 33.5 Z M 0 0 " fill-opacity="1" fill-rule="nonzero"/><path fill="#ffffff" d="M 0 0 L 33.5 0 L 33.5 33.5 L 0 33.5 Z M 0 0 " fill-opacity="1" fill-rule="nonzero"/></g><g clip-path="url(#b95e31aac2)"><g clip-path="url(#228250e5ff)"><path fill="#d5f8cc" d="M 2.671875 3.289062 L 32.882812 3.289062 L 32.882812 33.5 L 2.671875 33.5 Z M 2.671875 3.289062 " fill-opacity="1" fill-rule="nonzero"/></g></g><g clip-path="url(#cdba8bab8f)"><g clip-path="url(#aa81f4dc95)"><path stroke-linecap="butt" transform="matrix(0.762966, 0, 0, 0.762966, 0.000001, -0.000000992647)" fill="none" stroke-linejoin="miter" d="M 19.798351 0.00000130104 C 8.862411 0.00000130104 -0.00000131067 8.862413 -0.00000131067 19.798353 C -0.00000131067 30.729174 8.862411 39.591586 19.798351 39.591586 C 30.729171 39.591586 39.591583 30.729174 39.591583 19.798353 C 39.591583 8.862413 30.729171 0.00000130104 19.798351 0.00000130104 Z M 19.798351 0.00000130104 " stroke="#008000" stroke-width="1.951556" stroke-opacity="1" stroke-miterlimit="4"/></g></g><g clip-path="url(#eba39e6f94)"><path fill="#008000" d="M 12.132812 7.949219 C 11.070312 8.242188 10.015625 8.558594 8.964844 8.90625 C 8.753906 8.972656 8.628906 9.117188 8.597656 9.339844 C 7.980469 13.980469 9.410156 17.371094 11.117188 19.601562 C 11.839844 20.558594 12.691406 21.390625 13.667969 22.09375 C 14.054688 22.367188 14.398438 22.5625 14.667969 22.6875 C 14.800781 22.753906 14.910156 22.796875 14.992188 22.820312 C 15.03125 22.832031 15.070312 22.839844 15.105469 22.847656 C 15.144531 22.839844 15.183594 22.832031 15.21875 22.820312 C 15.304688 22.796875 15.414062 22.75 15.546875 22.6875 C 15.816406 22.5625 16.15625 22.367188 16.542969 22.09375 C 17.519531 21.390625 18.371094 20.558594 19.097656 19.601562 C 20.804688 17.371094 22.234375 13.980469 21.613281 9.339844 C 21.582031 9.117188 21.460938 8.972656 21.246094 8.90625 C 20.519531 8.667969 19.292969 8.277344 18.078125 7.949219 C 16.839844 7.613281 15.699219 7.363281 15.105469 7.363281 C 14.515625 7.363281 13.375 7.613281 12.132812 7.949219 Z M 11.835938 6.796875 C 13.046875 6.46875 14.335938 6.171875 15.105469 6.171875 C 15.878906 6.171875 17.164062 6.46875 18.375 6.796875 C 19.617188 7.132812 20.867188 7.53125 21.601562 7.769531 C 21.914062 7.875 22.175781 8.050781 22.386719 8.304688 C 22.597656 8.5625 22.722656 8.851562 22.765625 9.179688 C 23.433594 14.179688 21.886719 17.882812 20.011719 20.335938 C 19.214844 21.390625 18.277344 22.300781 17.203125 23.074219 C 16.832031 23.339844 16.441406 23.574219 16.03125 23.773438 C 15.71875 23.921875 15.382812 24.039062 15.105469 24.039062 C 14.828125 24.039062 14.496094 23.921875 14.179688 23.773438 C 13.769531 23.574219 13.378906 23.339844 13.011719 23.074219 C 11.9375 22.300781 11 21.390625 10.199219 20.335938 C 8.324219 17.882812 6.78125 14.179688 7.445312 9.179688 C 7.488281 8.851562 7.617188 8.5625 7.828125 8.304688 C 8.039062 8.050781 8.300781 7.875 8.613281 7.769531 C 9.679688 7.421875 10.753906 7.097656 11.835938 6.796875 " fill-opacity="1" fill-rule="nonzero"/></g><path fill="#008000" d="M 18.292969 11.917969 C 18.402344 12.027344 18.457031 12.160156 18.457031 12.316406 C 18.457031 12.46875 18.402344 12.601562 18.292969 12.710938 L 14.945312 16.058594 C 14.835938 16.167969 14.703125 16.222656 14.546875 16.222656 C 14.394531 16.222656 14.261719 16.167969 14.152344 16.058594 L 12.476562 14.386719 C 12.367188 14.277344 12.3125 14.144531 12.3125 13.988281 C 12.3125 13.835938 12.367188 13.703125 12.476562 13.59375 C 12.585938 13.484375 12.71875 13.429688 12.875 13.429688 C 13.027344 13.429688 13.160156 13.484375 13.269531 13.59375 L 14.546875 14.875 L 17.503906 11.917969 C 17.613281 11.808594 17.742188 11.753906 17.898438 11.753906 C 18.054688 11.753906 18.183594 11.808594 18.292969 11.917969 " fill-opacity="1" fill-rule="nonzero"/></svg>