<svg xmlns="http://www.w3.org/2000/svg" xmlns:xlink="http://www.w3.org/1999/xlink" width="45" zoomAndPan="magnify" viewBox="0 0 33.75 33.749998" height="45" preserveAspectRatio="xMidYMid meet" version="1.0"><defs><clipPath id="e68b7ff046"><path d="M 0 0 L 33.5 0 L 33.5 33.5 L 0 33.5 Z M 0 0 " clip-rule="nonzero"/></clipPath><clipPath id="7078707fd8"><path d="M 2.671875 3.289062 L 32.882812 3.289062 L 32.882812 33.5 L 2.671875 33.5 Z M 2.671875 3.289062 " clip-rule="nonzero"/></clipPath><clipPath id="0eda8f8f2e"><path d="M 17.777344 3.289062 C 9.433594 3.289062 2.671875 10.050781 2.671875 18.394531 C 2.671875 26.738281 9.433594 33.5 17.777344 33.5 C 26.121094 33.5 32.882812 26.738281 32.882812 18.394531 C 32.882812 10.050781 26.121094 3.289062 17.777344 3.289062 Z M 17.777344 3.289062 " clip-rule="nonzero"/></clipPath><clipPath id="bc16a2e7bd"><path d="M 0 0 L 30.207031 0 L 30.207031 30.207031 L 0 30.207031 Z M 0 0 " clip-rule="nonzero"/></clipPath><clipPath id="d78cdaf032"><path d="M 15.105469 0 C 6.761719 0 0 6.761719 0 15.105469 C 0 23.445312 6.761719 30.207031 15.105469 30.207031 C 23.445312 30.207031 30.207031 23.445312 30.207031 15.105469 C 30.207031 6.761719 23.445312 0 15.105469 0 Z M 15.105469 0 " clip-rule="nonzero"/></clipPath></defs><g clip-path="url(#e68b7ff046)"><path fill="#ffffff" d="M 0 0 L 33.5 0 L 33.5 33.5 L 0 33.5 Z M 0 0 " fill-opacity="1" fill-rule="nonzero"/><path fill="#ffffff" d="M 0 0 L 33.5 0 L 33.5 33.5 L 0 33.5 Z M 0 0 " fill-opacity="1" fill-rule="nonzero"/></g><g clip-path="url(#7078707fd8)"><g clip-path="url(#0eda8f8f2e)"><path fill="#d5f8cc" d="M 2.671875 3.289062 L 32.882812 3.289062 L 32.882812 33.5 L 2.671875 33.5 Z M 2.671875 3.289062 " fill-opacity="1" fill-rule="nonzero"/></g></g><g clip-path="url(#bc16a2e7bd)"><g clip-path="url(#d78cdaf032)"><path stroke-linecap="butt" transform="matrix(0.762966, 0, 0, 0.762966, 0.000001, -0.000000992647)" fill="none" stroke-linejoin="miter" d="M 19.798351 0.00000130104 C 8.862411 0.00000130104 -0.00000131067 8.862413 -0.00000131067 19.798353 C -0.00000131067 30.729174 8.862411 39.591586 19.798351 39.591586 C 30.729171 39.591586 39.591583 30.729174 39.591583 19.798353 C 39.591583 8.862413 30.729171 0.00000130104 19.798351 0.00000130104 Z M 19.798351 0.00000130104 " stroke="#008000" stroke-width="1.951556" stroke-opacity="1" stroke-miterlimit="4"/></g></g><path stroke-linecap="round" transform="matrix(0.806526, 0, 0, 0.806526, 5.465643, 5.465641)" fill="none" stroke-linejoin="round" d="M 9.811545 15.904426 L 8.99787 18.752289 L 8.189038 15.904426 C 7.971089 15.158557 7.593311 14.509554 7.041174 13.957417 C 6.493881 13.410123 5.844878 13.027502 5.099009 12.814397 L 2.251145 12.000721 L 5.094166 11.187046 C 5.844878 10.973941 6.493881 10.59132 7.041174 10.044026 C 7.588468 9.491889 7.971089 8.842886 8.184194 8.097017 L 8.99787 5.249154 L 9.811545 8.097017 C 10.02465 8.842886 10.407272 9.491889 10.959408 10.039183 C 11.506702 10.59132 12.155705 10.973941 12.901574 11.187046 L 15.749437 12.000721 L 12.906417 12.814397 C 12.155705 13.027502 11.506702 13.410123 10.959408 13.957417 C 10.407272 14.509554 10.029494 15.153713 9.816388 15.904426 Z M 18.258269 8.716961 L 18.001574 9.748585 L 17.740036 8.716961 C 17.589893 8.111547 17.294452 7.58847 16.853711 7.14773 C 16.41297 6.706989 15.889893 6.411547 15.28448 6.261405 L 14.248013 5.999866 L 15.28448 5.743171 C 15.889893 5.588185 16.41297 5.292744 16.853711 4.852003 C 17.294452 4.411262 17.589893 3.888185 17.740036 3.282772 L 18.001574 2.251148 L 18.258269 3.282772 C 18.408412 3.888185 18.703854 4.411262 19.144594 4.852003 C 19.585335 5.292744 20.108412 5.588185 20.713825 5.743171 L 21.750293 5.999866 L 20.713825 6.261405 C 20.108412 6.411547 19.585335 6.706989 19.144594 7.14773 C 18.703854 7.58847 18.408412 8.111547 18.258269 8.716961 Z M 16.892457 20.568529 L 16.50015 21.750295 L 16.107842 20.568529 C 15.87052 19.856563 15.395876 19.381919 14.68391 19.144597 L 13.502144 18.752289 L 14.68391 18.355138 C 15.395876 18.117816 15.87052 17.643172 16.107842 16.931206 L 16.50015 15.74944 L 16.892457 16.931206 C 17.129779 17.643172 17.604423 18.117816 18.316389 18.355138 L 19.498156 18.752289 L 18.316389 19.144597 C 17.604423 19.381919 17.129779 19.856563 16.892457 20.568529 Z M 16.892457 20.568529 " stroke="#008000" stroke-width="1.5" stroke-opacity="1" stroke-miterlimit="4"/></svg>